<?xml version="1.0" encoding="utf-8" standalone="no"?>
<!DOCTYPE svg PUBLIC "-//W3C//DTD SVG 1.1//EN"
  "http://www.w3.org/Graphics/SVG/1.1/DTD/svg11.dtd">
<svg xmlns:xlink="http://www.w3.org/1999/xlink" width="380.304pt" height="579.888pt" viewBox="0 0 380.304 579.888" xmlns="http://www.w3.org/2000/svg" version="1.1">
 <metadata>
  <rdf:RDF xmlns:dc="http://purl.org/dc/elements/1.1/" xmlns:cc="http://creativecommons.org/ns#" xmlns:rdf="http://www.w3.org/1999/02/22-rdf-syntax-ns#">
   <cc:Work>
    <dc:type rdf:resource="http://purl.org/dc/dcmitype/StillImage"/>
    <dc:date>2026-06-21T05:39:30.627129</dc:date>
    <dc:format>image/svg+xml</dc:format>
    <dc:creator>
     <cc:Agent>
      <dc:title>Matplotlib v3.10.9, https://matplotlib.org/</dc:title>
     </cc:Agent>
    </dc:creator>
   </cc:Work>
  </rdf:RDF>
 </metadata>
 <defs>
  <style type="text/css">*{stroke-linejoin: round; stroke-linecap: butt}</style>
 </defs>
 <g id="figure_1">
  <g id="patch_1">
   <path d="M 0 579.888 
L 380.304 579.888 
L 380.304 0 
L 0 0 
z
" style="fill: #ffffff"/>
  </g>
  <g id="axes_1">
   <g id="patch_2">
    <path d="M 117.5256 60.9768 
L 262.7784 60.9768 
Q 267.768 60.9768 267.768 55.9872 
L 267.768 31.5936 
Q 267.768 26.604 262.7784 26.604 
L 117.5256 26.604 
Q 112.536 26.604 112.536 31.5936 
L 112.536 55.9872 
Q 112.536 60.9768 117.5256 60.9768 
z
" clip-path="url(#pfeebbb8573)" style="fill: #eef2f7; stroke: #64748b; stroke-width: 1.2; stroke-linejoin: miter"/>
   </g>
   <g id="patch_3">
    <path d="M 190.152 60.9768 
Q 190.152 70.1244 190.152 77.930359 
" clip-path="url(#pfeebbb8573)" style="fill: none; stroke: #475569; stroke-width: 1.2; stroke-linecap: round"/>
    <path d="M 192.552 73.130359 
L 190.152 77.930359 
L 187.752 73.130359 
z
" clip-path="url(#pfeebbb8573)" style="fill: #475569; stroke: #475569; stroke-width: 1.2; stroke-linecap: round"/>
   </g>
   <g id="patch_4">
    <path d="M 117.5256 113.6448 
L 262.7784 113.6448 
Q 267.768 113.6448 267.768 108.6552 
L 267.768 84.2616 
Q 267.768 79.272 262.7784 79.272 
L 117.5256 79.272 
Q 112.536 79.272 112.536 84.2616 
L 112.536 108.6552 
Q 112.536 113.6448 117.5256 113.6448 
z
" clip-path="url(#pfeebbb8573)" style="fill: #eef2f7; stroke: #64748b; stroke-width: 1.2; stroke-linejoin: miter"/>
   </g>
   <g id="patch_5">
    <path d="M 190.152 113.6448 
Q 190.152 122.7924 190.152 130.598359 
" clip-path="url(#pfeebbb8573)" style="fill: none; stroke: #475569; stroke-width: 1.2; stroke-linecap: round"/>
    <path d="M 192.552 125.798359 
L 190.152 130.598359 
L 187.752 125.798359 
z
" clip-path="url(#pfeebbb8573)" style="fill: #475569; stroke: #475569; stroke-width: 1.2; stroke-linecap: round"/>
   </g>
   <g id="patch_6">
    <path d="M 117.5256 166.3128 
L 262.7784 166.3128 
Q 267.768 166.3128 267.768 161.3232 
L 267.768 136.9296 
Q 267.768 131.94 262.7784 131.94 
L 117.5256 131.94 
Q 112.536 131.94 112.536 136.9296 
L 112.536 161.3232 
Q 112.536 166.3128 117.5256 166.3128 
z
" clip-path="url(#pfeebbb8573)" style="fill: #eef2f7; stroke: #64748b; stroke-width: 1.2; stroke-linejoin: miter"/>
   </g>
   <g id="patch_7">
    <path d="M 190.152 166.3128 
Q 190.152 175.4604 190.152 183.266359 
" clip-path="url(#pfeebbb8573)" style="fill: none; stroke: #475569; stroke-width: 1.2; stroke-linecap: round"/>
    <path d="M 192.552 178.466359 
L 190.152 183.266359 
L 187.752 178.466359 
z
" clip-path="url(#pfeebbb8573)" style="fill: #475569; stroke: #475569; stroke-width: 1.2; stroke-linecap: round"/>
   </g>
   <g id="patch_8">
    <path d="M 45.4536 238.9392 
L 334.8504 238.9392 
Q 339.84 238.9392 339.84 233.9496 
L 339.84 189.5976 
Q 339.84 184.608 334.8504 184.608 
L 45.4536 184.608 
Q 40.464 184.608 40.464 189.5976 
L 40.464 233.9496 
Q 40.464 238.9392 45.4536 238.9392 
z
" clip-path="url(#pfeebbb8573)" style="fill: #dbeafe; stroke: #3b82f6; stroke-width: 1.2; stroke-linejoin: miter"/>
   </g>
   <g id="patch_9">
    <path d="M 190.152 238.9392 
Q 190.152 248.0868 190.152 255.892759 
" clip-path="url(#pfeebbb8573)" style="fill: none; stroke: #475569; stroke-width: 1.2; stroke-linecap: round"/>
    <path d="M 192.552 251.092759 
L 190.152 255.892759 
L 187.752 251.092759 
z
" clip-path="url(#pfeebbb8573)" style="fill: #475569; stroke: #475569; stroke-width: 1.2; stroke-linecap: round"/>
   </g>
   <g id="patch_10">
    <path d="M 45.4536 311.5656 
L 334.8504 311.5656 
Q 339.84 311.5656 339.84 306.576 
L 339.84 262.224 
Q 339.84 257.2344 334.8504 257.2344 
L 45.4536 257.2344 
Q 40.464 257.2344 40.464 262.224 
L 40.464 306.576 
Q 40.464 311.5656 45.4536 311.5656 
z
" clip-path="url(#pfeebbb8573)" style="fill: #ffedd5; stroke: #f97316; stroke-width: 1.2; stroke-linejoin: miter"/>
   </g>
   <g id="patch_11">
    <path d="M 190.152 311.5656 
Q 190.152 320.7132 190.152 328.519159 
" clip-path="url(#pfeebbb8573)" style="fill: none; stroke: #475569; stroke-width: 1.2; stroke-linecap: round"/>
    <path d="M 192.552 323.719159 
L 190.152 328.519159 
L 187.752 323.719159 
z
" clip-path="url(#pfeebbb8573)" style="fill: #475569; stroke: #475569; stroke-width: 1.2; stroke-linecap: round"/>
   </g>
   <g id="patch_12">
    <path d="M 34.3656 393.6168 
L 345.9384 393.6168 
Q 350.928 393.6168 350.928 388.6272 
L 350.928 334.8504 
Q 350.928 329.8608 345.9384 329.8608 
L 34.3656 329.8608 
Q 29.376 329.8608 29.376 334.8504 
L 29.376 388.6272 
Q 29.376 393.6168 34.3656 393.6168 
z
" clip-path="url(#pfeebbb8573)" style="fill: #f8fafc; stroke: #cbd5e1; stroke-linejoin: miter"/>
   </g>
   <g id="patch_13">
    <path d="M 45.4536 383.6376 
L 124.1784 383.6376 
Q 129.168 383.6376 129.168 378.648 
L 129.168 355.3632 
Q 129.168 350.3736 124.1784 350.3736 
L 45.4536 350.3736 
Q 40.464 350.3736 40.464 355.3632 
L 40.464 378.648 
Q 40.464 383.6376 45.4536 383.6376 
z
" clip-path="url(#pfeebbb8573)" style="fill: #e5e7eb; stroke: #6b7280; stroke-width: 1.1; stroke-linejoin: miter"/>
   </g>
   <g id="patch_14">
    <path d="M 150.7896 383.6376 
L 229.5144 383.6376 
Q 234.504 383.6376 234.504 378.648 
L 234.504 355.3632 
Q 234.504 350.3736 229.5144 350.3736 
L 150.7896 350.3736 
Q 145.8 350.3736 145.8 355.3632 
L 145.8 378.648 
Q 145.8 383.6376 150.7896 383.6376 
z
" clip-path="url(#pfeebbb8573)" style="fill: #dcfce7; stroke: #22c55e; stroke-width: 1.1; stroke-linejoin: miter"/>
   </g>
   <g id="patch_15">
    <path d="M 256.1256 383.6376 
L 334.8504 383.6376 
Q 339.84 383.6376 339.84 378.648 
L 339.84 355.3632 
Q 339.84 350.3736 334.8504 350.3736 
L 256.1256 350.3736 
Q 251.136 350.3736 251.136 355.3632 
L 251.136 378.648 
Q 251.136 383.6376 256.1256 383.6376 
z
" clip-path="url(#pfeebbb8573)" style="fill: #fee2e2; stroke: #ef4444; stroke-width: 1.1; stroke-linejoin: miter"/>
   </g>
   <g id="patch_16">
    <path d="M 190.152 393.6168 
Q 190.152 402.7644 190.152 410.570359 
" clip-path="url(#pfeebbb8573)" style="fill: none; stroke: #475569; stroke-width: 1.2; stroke-linecap: round"/>
    <path d="M 192.552 405.770359 
L 190.152 410.570359 
L 187.752 405.770359 
z
" clip-path="url(#pfeebbb8573)" style="fill: #475569; stroke: #475569; stroke-width: 1.2; stroke-linecap: round"/>
   </g>
   <g id="patch_17">
    <path d="M 117.5256 446.2848 
L 262.7784 446.2848 
Q 267.768 446.2848 267.768 441.2952 
L 267.768 416.9016 
Q 267.768 411.912 262.7784 411.912 
L 117.5256 411.912 
Q 112.536 411.912 112.536 416.9016 
L 112.536 441.2952 
Q 112.536 446.2848 117.5256 446.2848 
z
" clip-path="url(#pfeebbb8573)" style="fill: #ede9fe; stroke: #8b5cf6; stroke-width: 1.2; stroke-linejoin: miter"/>
   </g>
   <g id="patch_18">
    <path d="M 190.152 446.2848 
Q 190.152 455.4324 190.152 463.238359 
" clip-path="url(#pfeebbb8573)" style="fill: none; stroke: #475569; stroke-width: 1.2; stroke-linecap: round"/>
    <path d="M 192.552 458.438359 
L 190.152 463.238359 
L 187.752 458.438359 
z
" clip-path="url(#pfeebbb8573)" style="fill: #475569; stroke: #475569; stroke-width: 1.2; stroke-linecap: round"/>
   </g>
   <g id="patch_19">
    <path d="M 117.5256 498.9528 
L 262.7784 498.9528 
Q 267.768 498.9528 267.768 493.9632 
L 267.768 469.5696 
Q 267.768 464.58 262.7784 464.58 
L 117.5256 464.58 
Q 112.536 464.58 112.536 469.5696 
L 112.536 493.9632 
Q 112.536 498.9528 117.5256 498.9528 
z
" clip-path="url(#pfeebbb8573)" style="fill: #ede9fe; stroke: #8b5cf6; stroke-width: 1.2; stroke-linejoin: miter"/>
   </g>
   <g id="patch_20">
    <path d="M 190.152 498.9528 
Q 190.152 508.1004 190.152 515.906359 
" clip-path="url(#pfeebbb8573)" style="fill: none; stroke: #475569; stroke-width: 1.2; stroke-linecap: round"/>
    <path d="M 192.552 511.106359 
L 190.152 515.906359 
L 187.752 511.106359 
z
" clip-path="url(#pfeebbb8573)" style="fill: #475569; stroke: #475569; stroke-width: 1.2; stroke-linecap: round"/>
   </g>
   <g id="patch_21">
    <path d="M 117.5256 551.6208 
L 262.7784 551.6208 
Q 267.768 551.6208 267.768 546.6312 
L 267.768 522.2376 
Q 267.768 517.248 262.7784 517.248 
L 117.5256 517.248 
Q 112.536 517.248 112.536 522.2376 
L 112.536 546.6312 
Q 112.536 551.6208 117.5256 551.6208 
z
" clip-path="url(#pfeebbb8573)" style="fill: #ede9fe; stroke: #8b5cf6; stroke-width: 1.2; stroke-linejoin: miter"/>
   </g>
   <g id="line2d_1">
    <path d="M 144.876 230.0688 
L 144.876 209.0016 
" clip-path="url(#pfeebbb8573)" style="fill: none; stroke: #3b82f6; stroke-opacity: 0.7; stroke-width: 0.8; stroke-linecap: square"/>
   </g>
   <g id="line2d_2">
    <path d="M 235.428 230.0688 
L 235.428 209.0016 
" clip-path="url(#pfeebbb8573)" style="fill: none; stroke: #3b82f6; stroke-opacity: 0.7; stroke-width: 0.8; stroke-linecap: square"/>
   </g>
   <g id="line2d_3">
    <path d="M 144.876 302.6952 
L 144.876 281.628 
" clip-path="url(#pfeebbb8573)" style="fill: none; stroke: #f97316; stroke-opacity: 0.7; stroke-width: 0.8; stroke-linecap: square"/>
   </g>
   <g id="line2d_4">
    <path d="M 235.428 302.6952 
L 235.428 281.628 
" clip-path="url(#pfeebbb8573)" style="fill: none; stroke: #f97316; stroke-opacity: 0.7; stroke-width: 0.8; stroke-linecap: square"/>
   </g>
   <g id="text_1">
    <!-- TSPLIB95 .tsp 文件 -->
    <g style="fill: #111827" transform="translate(144.600047 46.866572) scale(0.105 -0.105)">
     <defs>
      <path id="MicrosoftYaHei-54" d="M 3550 4284 
L 2153 4284 
L 2153 0 
L 1525 0 
L 1525 4284 
L 134 4284 
L 134 4841 
L 3550 4841 
L 3550 4284 
z
" transform="scale(0.015625)"/>
      <path id="MicrosoftYaHei-53" d="M 400 909 
Q 622 716 994 591 
Q 1366 466 1700 466 
Q 2719 466 2719 1191 
Q 2719 1394 2609 1556 
Q 2500 1719 2309 1844 
Q 2119 1969 1594 2228 
Q 866 2591 634 2902 
Q 403 3213 403 3613 
Q 403 4216 887 4569 
Q 1372 4922 2109 4922 
Q 2831 4922 3169 4747 
L 3169 4066 
Q 2731 4369 2063 4369 
Q 1619 4369 1339 4183 
Q 1059 3997 1059 3666 
Q 1059 3372 1253 3187 
Q 1447 3003 2094 2684 
Q 2806 2344 3090 2003 
Q 3375 1663 3375 1238 
Q 3375 600 2912 259 
Q 2450 -81 1628 -81 
Q 1341 -81 958 -1 
Q 575 78 400 197 
L 400 909 
z
" transform="scale(0.015625)"/>
      <path id="MicrosoftYaHei-50" d="M 1250 1809 
L 1250 0 
L 625 0 
L 625 4841 
L 2000 4841 
Q 2784 4841 3217 4462 
Q 3650 4084 3650 3381 
Q 3650 2669 3144 2226 
Q 2638 1784 1878 1809 
L 1250 1809 
z
M 1250 4291 
L 1250 2359 
L 1828 2359 
Q 2400 2359 2697 2617 
Q 2994 2875 2994 3356 
Q 2994 4291 1888 4291 
L 1250 4291 
z
" transform="scale(0.015625)"/>
      <path id="MicrosoftYaHei-4c" d="M 3178 0 
L 625 0 
L 625 4841 
L 1250 4841 
L 1250 553 
L 3178 553 
L 3178 0 
z
" transform="scale(0.015625)"/>
      <path id="MicrosoftYaHei-49" d="M 1250 4841 
L 1250 0 
L 625 0 
L 625 4841 
L 1250 4841 
z
" transform="scale(0.015625)"/>
      <path id="MicrosoftYaHei-42" d="M 625 0 
L 625 4841 
L 2047 4841 
Q 2684 4841 3065 4536 
Q 3447 4231 3447 3728 
Q 3447 3328 3220 3022 
Q 2994 2716 2597 2588 
L 2597 2575 
Q 3091 2519 3386 2201 
Q 3681 1884 3681 1397 
Q 3681 772 3232 386 
Q 2784 0 2084 0 
L 625 0 
z
M 1250 4294 
L 1250 2778 
L 1819 2778 
Q 2272 2778 2530 2998 
Q 2788 3219 2788 3609 
Q 2788 4294 1875 4294 
L 1250 4294 
z
M 1250 2234 
L 1250 547 
L 2000 547 
Q 2491 547 2758 773 
Q 3025 1000 3025 1403 
Q 3025 2234 1897 2234 
L 1250 2234 
z
" transform="scale(0.015625)"/>
      <path id="MicrosoftYaHei-39" d="M 578 656 
Q 978 425 1441 425 
Q 2091 425 2448 937 
Q 2806 1450 2806 2394 
Q 2800 2388 2794 2394 
Q 2475 1788 1722 1788 
Q 1113 1788 713 2206 
Q 313 2625 313 3294 
Q 313 4006 750 4464 
Q 1188 4922 1884 4922 
Q 2606 4922 3012 4355 
Q 3419 3788 3419 2703 
Q 3419 1363 2894 641 
Q 2369 -81 1441 -81 
Q 931 -81 578 84 
L 578 656 
z
M 931 3372 
Q 931 2884 1181 2598 
Q 1431 2313 1872 2313 
Q 2253 2313 2512 2573 
Q 2772 2834 2772 3206 
Q 2772 3728 2514 4070 
Q 2256 4413 1834 4413 
Q 1444 4413 1187 4116 
Q 931 3819 931 3372 
z
" transform="scale(0.015625)"/>
      <path id="MicrosoftYaHei-35" d="M 3294 1494 
Q 3294 784 2823 350 
Q 2353 -84 1559 -84 
Q 878 -84 544 119 
L 544 744 
Q 1034 425 1544 425 
Q 2050 425 2361 704 
Q 2672 984 2672 1447 
Q 2672 1909 2348 2167 
Q 2025 2425 1434 2425 
Q 978 2425 613 2384 
L 791 4841 
L 3053 4841 
L 3053 4303 
L 1306 4303 
L 1206 2931 
L 1647 2950 
Q 2416 2950 2855 2567 
Q 3294 2184 3294 1494 
z
" transform="scale(0.015625)"/>
      <path id="MicrosoftYaHei-20" transform="scale(0.015625)"/>
      <path id="MicrosoftYaHei-2e" d="M 372 322 
Q 372 491 487 606 
Q 603 722 775 722 
Q 950 722 1065 605 
Q 1181 488 1181 322 
Q 1181 159 1065 42 
Q 950 -75 772 -75 
Q 600 -75 486 42 
Q 372 159 372 322 
z
" transform="scale(0.015625)"/>
      <path id="MicrosoftYaHei-74" d="M 2206 34 
Q 2006 -75 1666 -75 
Q 738 -75 738 953 
L 738 2950 
L 144 2950 
L 144 3456 
L 738 3456 
L 738 4288 
L 1347 4481 
L 1347 3456 
L 2206 3456 
L 2206 2950 
L 1347 2950 
L 1347 1063 
Q 1347 722 1462 575 
Q 1578 428 1847 428 
Q 2053 428 2206 544 
L 2206 34 
z
" transform="scale(0.015625)"/>
      <path id="MicrosoftYaHei-73" d="M 353 747 
Q 816 413 1350 413 
Q 2066 413 2066 881 
Q 2066 1081 1909 1211 
Q 1753 1341 1275 1519 
Q 700 1750 528 1976 
Q 356 2203 356 2525 
Q 356 2984 745 3261 
Q 1134 3538 1703 3538 
Q 2144 3538 2522 3384 
L 2522 2794 
Q 2134 3044 1644 3044 
Q 1350 3044 1165 2916 
Q 981 2788 981 2578 
Q 981 2372 1114 2256 
Q 1247 2141 1703 1959 
Q 2281 1744 2484 1512 
Q 2688 1281 2688 941 
Q 2688 466 2298 192 
Q 1909 -81 1291 -81 
Q 753 -81 353 122 
L 353 747 
z
" transform="scale(0.015625)"/>
      <path id="MicrosoftYaHei-70" d="M 1159 488 
L 1159 -1591 
L 547 -1591 
L 547 3456 
L 1159 3456 
L 1159 2859 
L 1172 2859 
Q 1578 3538 2359 3538 
Q 3022 3538 3398 3073 
Q 3775 2609 3775 1828 
Q 3775 966 3348 442 
Q 2922 -81 2200 -81 
Q 1534 -81 1172 488 
L 1159 488 
z
M 1156 1425 
Q 1156 1003 1428 714 
Q 1700 425 2109 425 
Q 2597 425 2872 800 
Q 3147 1175 3147 1838 
Q 3147 2397 2890 2714 
Q 2634 3031 2191 3031 
Q 1738 3031 1447 2709 
Q 1156 2388 1156 1884 
L 1156 1425 
z
" transform="scale(0.015625)"/>
      <path id="MicrosoftYaHei-6587" d="M 194 4241 
L 3194 4241 
Q 2878 4841 2700 5116 
L 3181 5341 
Q 3356 5072 3706 4466 
L 3256 4241 
L 6194 4241 
L 6194 3778 
L 5041 3778 
Q 4706 1994 3603 909 
Q 4434 303 6244 -178 
Q 5956 -503 5806 -722 
Q 4044 -113 3203 553 
Q 2359 -103 506 -772 
Q 344 -553 131 -284 
Q 1919 253 2822 913 
Q 1681 2131 1372 3778 
L 194 3778 
L 194 4241 
z
M 4506 3778 
L 1872 3778 
Q 2153 2241 3216 1238 
Q 4231 2181 4506 3778 
z
" transform="scale(0.015625)"/>
      <path id="MicrosoftYaHei-4ef6" d="M 1950 1816 
L 4119 1816 
L 4119 3397 
L 2928 3397 
Q 2675 2725 2375 2197 
Q 2194 2372 1963 2528 
Q 2556 3572 2838 4859 
L 3344 4716 
Q 3222 4250 3081 3834 
L 4119 3834 
L 4119 5284 
L 4619 5284 
L 4619 3834 
L 6113 3834 
L 6113 3397 
L 4619 3397 
L 4619 1816 
L 6319 1816 
L 6319 1378 
L 4619 1378 
L 4619 -809 
L 4119 -809 
L 4119 1378 
L 1950 1378 
L 1950 1816 
z
M 69 2191 
Q 931 3466 1456 5278 
L 1969 5128 
Q 1738 4400 1469 3763 
L 1469 -816 
L 975 -816 
L 975 2731 
Q 656 2141 294 1647 
Q 200 1916 69 2191 
z
" transform="scale(0.015625)"/>
     </defs>
     <use xlink:href="#MicrosoftYaHei-54"/>
     <use xlink:href="#MicrosoftYaHei-53" transform="translate(57.324219 0)"/>
     <use xlink:href="#MicrosoftYaHei-50" transform="translate(115.039062 0)"/>
     <use xlink:href="#MicrosoftYaHei-4c" transform="translate(176.220703 0)"/>
     <use xlink:href="#MicrosoftYaHei-49" transform="translate(227.539062 0)"/>
     <use xlink:href="#MicrosoftYaHei-42" transform="translate(256.933594 0)"/>
     <use xlink:href="#MicrosoftYaHei-39" transform="translate(319.677734 0)"/>
     <use xlink:href="#MicrosoftYaHei-35" transform="translate(378.320312 0)"/>
     <use xlink:href="#MicrosoftYaHei-20" transform="translate(436.962891 0)"/>
     <use xlink:href="#MicrosoftYaHei-2e" transform="translate(466.552734 0)"/>
     <use xlink:href="#MicrosoftYaHei-74" transform="translate(490.625 0)"/>
     <use xlink:href="#MicrosoftYaHei-73" transform="translate(527.880859 0)"/>
     <use xlink:href="#MicrosoftYaHei-70" transform="translate(574.169922 0)"/>
     <use xlink:href="#MicrosoftYaHei-20" transform="translate(638.037109 0)"/>
     <use xlink:href="#MicrosoftYaHei-6587" transform="translate(667.626953 0)"/>
     <use xlink:href="#MicrosoftYaHei-4ef6" transform="translate(767.626953 0)"/>
    </g>
   </g>
   <g id="text_2">
    <!-- 解析器（Parser） -->
    <g style="fill: #111827" transform="translate(148.512937 99.350002) scale(0.105 -0.105)">
     <defs>
      <path id="MicrosoftYaHei-89e3" d="M 75 3559 
Q 756 4316 1188 5322 
L 1625 5203 
Q 1497 4941 1366 4697 
L 2544 4697 
L 2544 4309 
L 2084 3641 
L 2881 3641 
L 2881 -128 
Q 2881 -753 2263 -759 
Q 1994 -766 1706 -747 
Q 1688 -591 1638 -328 
Q 1938 -359 2175 -359 
Q 2475 -359 2475 -66 
L 2475 953 
L 1913 953 
L 1913 -203 
L 1506 -203 
L 1506 953 
L 950 953 
Q 897 -225 438 -847 
Q 294 -684 88 -528 
Q 550 153 550 1303 
L 550 3428 
Q 463 3319 375 3216 
Q 269 3359 75 3559 
z
M 3075 897 
L 4550 897 
L 4550 1797 
L 3794 1797 
Q 3659 1438 3513 1122 
Q 3331 1228 3106 1309 
Q 3456 2059 3663 2828 
L 4094 2709 
Q 4019 2456 3941 2222 
L 4550 2222 
L 4550 2897 
L 5013 2897 
L 5013 2222 
L 6131 2222 
L 6131 1797 
L 5013 1797 
L 5013 897 
L 6281 897 
L 6281 472 
L 5013 472 
L 5013 -841 
L 4550 -841 
L 4550 472 
L 3075 472 
L 3075 897 
z
M 3138 4997 
L 5950 4997 
Q 5931 4384 5888 3847 
Q 5844 3084 5081 3084 
Q 4819 3084 4438 3103 
Q 4400 3366 4350 3603 
Q 4800 3547 5056 3547 
Q 5394 3547 5425 3909 
Q 5456 4191 5469 4572 
L 4284 4572 
Q 4263 3950 4063 3584 
Q 3844 3159 3219 2759 
Q 3119 2916 2919 3159 
Q 3438 3441 3638 3778 
Q 3806 4050 3828 4572 
L 3138 4572 
L 3138 4997 
z
M 709 3641 
L 1581 3641 
L 2038 4316 
L 1150 4316 
Q 934 3950 709 3641 
z
M 1913 1322 
L 2475 1322 
L 2475 2116 
L 1913 2116 
L 1913 1322 
z
M 2475 3272 
L 1913 3272 
L 1913 2484 
L 2475 2484 
L 2475 3272 
z
M 956 1322 
L 1506 1322 
L 1506 2116 
L 956 2116 
L 956 1322 
z
M 956 2484 
L 1506 2484 
L 1506 3272 
L 956 3272 
L 956 2484 
z
" transform="scale(0.015625)"/>
      <path id="MicrosoftYaHei-6790" d="M 2775 4797 
Q 4319 4822 5863 5066 
L 6031 4616 
Q 4713 4422 3256 4359 
L 3256 2966 
L 6306 2966 
L 6306 2509 
L 5131 2509 
L 5131 -816 
L 4650 -816 
L 4650 2509 
L 3256 2509 
L 3256 2272 
Q 3256 241 2225 -853 
Q 2069 -628 1900 -441 
Q 2775 497 2775 2278 
L 2775 4797 
z
M 88 1391 
Q 738 2341 1069 3584 
L 175 3584 
L 175 4016 
L 1081 4016 
L 1081 5259 
L 1538 5259 
L 1538 4016 
L 2400 4016 
L 2400 3584 
L 1538 3584 
L 1538 2872 
L 1769 3053 
Q 2338 2384 2594 1984 
L 2206 1697 
Q 1913 2159 1538 2659 
L 1538 -816 
L 1081 -816 
L 1081 2397 
Q 763 1459 306 834 
Q 231 1053 88 1391 
z
" transform="scale(0.015625)"/>
      <path id="MicrosoftYaHei-5668" d="M 300 2691 
L 2825 2691 
Q 2922 2925 2950 3234 
L 3400 3172 
Q 3363 2909 3291 2691 
L 4653 2691 
Q 4403 2872 4125 3047 
L 4381 3328 
Q 4794 3084 5125 2841 
L 4984 2691 
L 6150 2691 
L 6150 2278 
L 3738 2278 
Q 4459 1572 6300 1609 
Q 6150 1353 6044 1128 
Q 5878 1141 5725 1156 
L 5725 -753 
L 5288 -753 
L 5288 -409 
L 3950 -409 
L 3950 -747 
L 3513 -747 
L 3513 1184 
L 5503 1184 
Q 3716 1425 3219 2278 
L 3106 2278 
Q 2756 1534 838 1184 
L 2838 1184 
L 2838 -747 
L 2400 -747 
L 2400 -409 
L 1081 -409 
L 1081 -753 
L 644 -753 
L 644 1147 
Q 478 1116 300 1084 
Q 206 1272 56 1528 
Q 2144 1797 2563 2278 
L 300 2278 
L 300 2691 
z
M 3506 4966 
L 5719 4966 
L 5719 3122 
L 5281 3122 
L 5281 3341 
L 3944 3341 
L 3944 3147 
L 3506 3147 
L 3506 4966 
z
M 638 4966 
L 2831 4966 
L 2831 3147 
L 2394 3147 
L 2394 3341 
L 1075 3341 
L 1075 3084 
L 638 3084 
L 638 4966 
z
M 5281 4578 
L 3944 4578 
L 3944 3728 
L 5281 3728 
L 5281 4578 
z
M 2394 4578 
L 1075 4578 
L 1075 3728 
L 2394 3728 
L 2394 4578 
z
M 5288 797 
L 3950 797 
L 3950 -22 
L 5288 -22 
L 5288 797 
z
M 2400 797 
L 1081 797 
L 1081 -22 
L 2400 -22 
L 2400 797 
z
" transform="scale(0.015625)"/>
      <path id="MicrosoftYaHei-ff08" d="M 5288 -1100 
Q 4172 119 4172 1850 
Q 4172 3603 5288 4838 
L 5825 4838 
Q 4716 3572 4716 1856 
Q 4716 166 5819 -1100 
L 5288 -1100 
z
" transform="scale(0.015625)"/>
      <path id="MicrosoftYaHei-61" d="M 628 3216 
Q 1144 3538 1819 3538 
Q 3069 3538 3069 2225 
L 3069 0 
L 2463 0 
L 2463 534 
L 2447 534 
Q 2088 -81 1388 -81 
Q 884 -81 587 191 
Q 291 463 291 925 
Q 291 1894 1438 2053 
L 2463 2197 
Q 2463 3044 1763 3044 
Q 1141 3044 628 2625 
L 628 3216 
z
M 1653 1625 
Q 1228 1569 1067 1412 
Q 906 1256 906 975 
Q 906 728 1081 572 
Q 1256 416 1544 416 
Q 1944 416 2203 697 
Q 2463 978 2463 1403 
L 2463 1734 
L 1653 1625 
z
" transform="scale(0.015625)"/>
      <path id="MicrosoftYaHei-72" d="M 2400 2850 
Q 2247 2959 1978 2959 
Q 1622 2959 1390 2626 
Q 1159 2294 1159 1750 
L 1159 0 
L 547 0 
L 547 3456 
L 1159 3456 
L 1159 2753 
L 1172 2753 
Q 1434 3516 2078 3516 
Q 2288 3516 2400 3469 
L 2400 2850 
z
" transform="scale(0.015625)"/>
      <path id="MicrosoftYaHei-65" d="M 3363 1572 
L 944 1572 
Q 959 1019 1246 717 
Q 1534 416 2050 416 
Q 2631 416 3116 788 
L 3116 241 
Q 2659 -81 1906 -81 
Q 1156 -81 736 394 
Q 316 869 316 1713 
Q 316 2506 777 3022 
Q 1238 3538 1922 3538 
Q 2600 3538 2981 3102 
Q 3363 2666 3363 1881 
L 3363 1572 
z
M 2750 2063 
Q 2747 2531 2528 2787 
Q 2309 3044 1913 3044 
Q 1547 3044 1280 2772 
Q 1013 2500 944 2063 
L 2750 2063 
z
" transform="scale(0.015625)"/>
      <path id="MicrosoftYaHei-ff09" d="M 1113 -1100 
L 575 -1100 
Q 1684 163 1684 1888 
Q 1684 3581 581 4838 
L 1113 4838 
Q 2222 3628 2222 1888 
Q 2222 128 1113 -1100 
z
" transform="scale(0.015625)"/>
     </defs>
     <use xlink:href="#MicrosoftYaHei-89e3"/>
     <use xlink:href="#MicrosoftYaHei-6790" transform="translate(100 0)"/>
     <use xlink:href="#MicrosoftYaHei-5668" transform="translate(200 0)"/>
     <use xlink:href="#MicrosoftYaHei-ff08" transform="translate(300 0)"/>
     <use xlink:href="#MicrosoftYaHei-50" transform="translate(400 0)"/>
     <use xlink:href="#MicrosoftYaHei-61" transform="translate(457.681641 0)"/>
     <use xlink:href="#MicrosoftYaHei-72" transform="translate(512.955078 0)"/>
     <use xlink:href="#MicrosoftYaHei-73" transform="translate(551.888672 0)"/>
     <use xlink:href="#MicrosoftYaHei-65" transform="translate(598.177734 0)"/>
     <use xlink:href="#MicrosoftYaHei-72" transform="translate(654.916016 0)"/>
     <use xlink:href="#MicrosoftYaHei-ff09" transform="translate(693.099609 0)"/>
    </g>
   </g>
   <g id="text_3">
    <!-- 实例（Instance） -->
    <g style="fill: #111827" transform="translate(148.238953 152.018002) scale(0.105 -0.105)">
     <defs>
      <path id="MicrosoftYaHei-5b9e" d="M 113 -397 
Q 2419 34 3081 972 
L 213 972 
L 213 1434 
L 3313 1434 
Q 3525 2084 3506 3703 
L 4031 3703 
Q 4031 2097 3856 1434 
L 6225 1434 
L 6225 972 
L 3681 972 
Q 3631 872 3563 759 
Q 4900 197 6181 -403 
L 5906 -878 
Q 4569 -197 3263 391 
Q 2413 -441 413 -891 
Q 269 -616 113 -397 
z
M 331 4422 
L 3194 4422 
Q 3038 4703 2775 5078 
L 3231 5334 
Q 3438 5059 3731 4609 
L 3388 4422 
L 6063 4422 
L 6063 3303 
L 5563 3303 
L 5563 3959 
L 831 3959 
L 831 3303 
L 331 3303 
L 331 4422 
z
M 1100 2734 
Q 1819 2409 2450 2053 
L 2181 1622 
Q 1556 2003 863 2334 
L 1100 2734 
z
M 1663 3691 
Q 2388 3341 2981 2984 
L 2700 2559 
Q 2119 2934 1419 3322 
L 1663 3691 
z
" transform="scale(0.015625)"/>
      <path id="MicrosoftYaHei-4f8b" d="M 2381 1841 
L 2631 2191 
Q 2916 1997 3247 1738 
Q 3488 2378 3581 3128 
L 2703 3128 
Q 2350 1984 1831 1291 
Q 1700 1491 1531 1678 
Q 2238 2694 2578 4522 
L 1900 4522 
L 1900 4959 
L 4319 4959 
L 4319 4522 
L 3044 4522 
Q 2947 4009 2828 3559 
L 4044 3559 
L 4044 3128 
Q 3788 666 2038 -822 
Q 1900 -634 1694 -416 
Q 2578 297 3063 1303 
Q 2753 1556 2381 1841 
z
M 88 2291 
Q 894 3659 1281 5322 
L 1744 5234 
Q 1578 4534 1325 3853 
L 1325 -809 
L 900 -809 
L 900 2847 
Q 625 2275 288 1716 
Q 213 1966 88 2291 
z
M 5575 5303 
L 6031 5303 
L 6031 84 
Q 6031 -391 5881 -566 
Q 5750 -728 5356 -734 
Q 5088 -741 4488 -722 
Q 4463 -466 4400 -203 
Q 4881 -253 5188 -253 
Q 5431 -259 5500 -166 
Q 5575 -84 5575 234 
L 5575 5303 
z
M 4913 653 
L 4469 653 
L 4469 4322 
L 4913 4322 
L 4913 653 
z
" transform="scale(0.015625)"/>
      <path id="MicrosoftYaHei-6e" d="M 3469 0 
L 2859 0 
L 2859 1966 
Q 2859 3031 2081 3031 
Q 1678 3031 1418 2731 
Q 1159 2431 1159 1972 
L 1159 0 
L 547 0 
L 547 3456 
L 1159 3456 
L 1159 2884 
L 1172 2884 
Q 1563 3538 2306 3538 
Q 2875 3538 3172 3173 
Q 3469 2809 3469 2113 
L 3469 0 
z
" transform="scale(0.015625)"/>
      <path id="MicrosoftYaHei-63" d="M 2934 156 
Q 2538 -81 1978 -81 
Q 1228 -81 772 400 
Q 316 881 316 1647 
Q 316 2497 808 3017 
Q 1300 3538 2125 3538 
Q 2600 3538 2938 3369 
L 2938 2763 
Q 2572 3031 2125 3031 
Q 1600 3031 1270 2667 
Q 941 2303 941 1697 
Q 941 1100 1252 762 
Q 1563 425 2091 425 
Q 2538 425 2934 719 
L 2934 156 
z
" transform="scale(0.015625)"/>
     </defs>
     <use xlink:href="#MicrosoftYaHei-5b9e"/>
     <use xlink:href="#MicrosoftYaHei-4f8b" transform="translate(100 0)"/>
     <use xlink:href="#MicrosoftYaHei-ff08" transform="translate(200 0)"/>
     <use xlink:href="#MicrosoftYaHei-49" transform="translate(300 0)"/>
     <use xlink:href="#MicrosoftYaHei-6e" transform="translate(329.394531 0)"/>
     <use xlink:href="#MicrosoftYaHei-73" transform="translate(391.015625 0)"/>
     <use xlink:href="#MicrosoftYaHei-74" transform="translate(437.304688 0)"/>
     <use xlink:href="#MicrosoftYaHei-61" transform="translate(474.560547 0)"/>
     <use xlink:href="#MicrosoftYaHei-6e" transform="translate(529.833984 0)"/>
     <use xlink:href="#MicrosoftYaHei-63" transform="translate(591.455078 0)"/>
     <use xlink:href="#MicrosoftYaHei-65" transform="translate(641.601562 0)"/>
     <use xlink:href="#MicrosoftYaHei-ff09" transform="translate(698.339844 0)"/>
    </g>
   </g>
   <g id="text_4">
    <!-- 核心数据层 -->
    <g style="fill: #475569" transform="translate(167.652 200.392116) scale(0.09 -0.09)">
     <defs>
      <path id="MicrosoftYaHei-6838" d="M 2063 759 
Q 3306 1403 4150 2284 
Q 3538 2222 3013 2166 
Q 2781 2141 2581 2078 
L 2350 2534 
Q 2606 2672 2750 2859 
Q 3144 3341 3519 3959 
L 2331 3959 
L 2331 4409 
L 4250 4409 
Q 3994 4791 3775 5091 
L 4181 5347 
Q 4419 5053 4731 4628 
L 4400 4409 
L 6313 4409 
L 6313 3959 
L 4100 3959 
Q 3644 3266 3156 2653 
Q 3844 2691 4550 2734 
Q 4906 3178 5175 3678 
L 5631 3434 
Q 4563 1559 2419 378 
Q 2244 572 2063 759 
z
M 88 1353 
Q 756 2416 1025 3616 
L 131 3616 
L 131 4053 
L 1031 4053 
L 1031 5297 
L 1500 5297 
L 1500 4053 
L 2213 4053 
L 2213 3616 
L 1500 3616 
L 1500 2516 
L 1694 2722 
Q 2094 2384 2438 2047 
L 2119 1728 
Q 1813 2059 1500 2347 
L 1500 -866 
L 1031 -866 
L 1031 2447 
Q 713 1422 288 803 
Q 206 1072 88 1353 
z
M 2250 -472 
Q 4388 428 5769 2466 
L 6194 2178 
Q 5656 1403 5019 784 
Q 5738 197 6369 -366 
L 5988 -772 
Q 5400 -191 4675 466 
Q 3731 -366 2581 -884 
Q 2463 -716 2250 -472 
z
" transform="scale(0.015625)"/>
      <path id="MicrosoftYaHei-5fc3" d="M 1706 4116 
L 2225 4116 
L 2225 453 
Q 2225 -116 2731 -116 
L 4075 -116 
Q 4613 -116 4681 334 
Q 4750 728 4800 1278 
Q 5063 1172 5338 1078 
Q 5244 422 5163 97 
Q 4994 -603 4175 -603 
L 2606 -603 
Q 1706 -603 1706 334 
L 1706 4116 
z
M 5231 3641 
Q 5763 2634 6338 1353 
L 5819 1097 
Q 5338 2309 4763 3422 
L 5231 3641 
z
M 788 3447 
L 1288 3309 
Q 1000 1978 600 722 
L 100 916 
Q 513 2091 788 3447 
z
M 3081 5372 
Q 3675 4384 4088 3591 
Q 3794 3441 3588 3322 
Q 3150 4291 2644 5147 
L 3081 5372 
z
" transform="scale(0.015625)"/>
      <path id="MicrosoftYaHei-6570" d="M 4175 5303 
L 4675 5228 
Q 4544 4622 4369 4097 
L 6281 4097 
L 6281 3672 
L 5888 3672 
Q 5731 1834 5088 753 
Q 5594 66 6375 -372 
Q 6175 -647 6038 -866 
Q 5275 -372 4769 309 
Q 4194 -403 3400 -928 
Q 3263 -747 3044 -534 
Q 3919 41 4463 772 
Q 3956 1647 3794 2791 
Q 3663 2559 3519 2359 
Q 3394 2541 3206 2759 
Q 3931 3803 4175 5303 
z
M 150 1697 
L 1100 1697 
Q 1238 1934 1369 2184 
L 1819 2041 
Q 1719 1866 1619 1697 
L 3150 1697 
L 3150 1291 
Q 2913 678 2431 216 
Q 2775 53 3131 -109 
L 2856 -541 
Q 2469 -322 2050 -103 
Q 1344 -609 269 -903 
Q 169 -703 56 -466 
Q 969 -259 1600 128 
Q 1063 403 475 691 
Q 675 978 863 1284 
L 150 1284 
L 150 1697 
z
M 219 3847 
L 1656 3847 
L 1656 5247 
L 2119 5247 
L 2119 3847 
L 3319 3847 
L 3319 3434 
L 2119 3434 
L 2119 3053 
L 2306 3266 
Q 2888 2841 3281 2516 
L 2981 2166 
Q 2638 2491 2119 2897 
L 2119 2184 
L 1656 2184 
L 1656 3059 
Q 1088 2466 331 2016 
Q 213 2197 63 2397 
Q 850 2822 1506 3434 
L 219 3434 
L 219 3847 
z
M 5388 3672 
L 4219 3672 
Q 4188 3591 4150 3516 
Q 4263 2191 4775 1247 
Q 5275 2159 5388 3672 
z
M 1088 834 
Q 1531 634 2000 416 
Q 2431 784 2675 1284 
L 1375 1284 
Q 1231 1053 1088 834 
z
M 3038 5091 
L 3425 4834 
Q 3081 4384 2738 4003 
Q 2594 4128 2400 4266 
Q 2725 4647 3038 5091 
z
M 381 4816 
L 738 5059 
Q 1019 4716 1319 4322 
L 931 4047 
Q 656 4453 381 4816 
z
" transform="scale(0.015625)"/>
      <path id="MicrosoftYaHei-636e" d="M 2900 1334 
L 4188 1334 
L 4188 2128 
L 2731 2128 
Q 2663 206 1844 -841 
Q 1694 -647 1506 -447 
Q 2288 516 2288 2509 
L 2288 4947 
L 5975 4947 
L 5975 3134 
L 5525 3134 
L 5525 3328 
L 2738 3328 
L 2738 2553 
L 4188 2553 
L 4188 3209 
L 4638 3209 
L 4638 2553 
L 6288 2553 
L 6288 2128 
L 4638 2128 
L 4638 1334 
L 5938 1334 
L 5938 -778 
L 5488 -778 
L 5488 -416 
L 3350 -416 
L 3350 -778 
L 2900 -778 
L 2900 1334 
z
M 100 1966 
Q 544 2088 963 2213 
L 963 3641 
L 175 3641 
L 175 4091 
L 963 4091 
L 963 5284 
L 1425 5284 
L 1425 4091 
L 2106 4091 
L 2106 3641 
L 1425 3641 
L 1425 2356 
Q 1722 2450 2006 2547 
Q 2013 2266 2044 2059 
Q 1722 1956 1425 1856 
L 1425 -34 
Q 1425 -741 806 -753 
Q 613 -759 231 -747 
Q 206 -497 156 -228 
Q 500 -266 681 -266 
Q 963 -266 963 53 
L 963 1703 
Q 534 1559 163 1428 
L 100 1966 
z
M 5525 4534 
L 2738 4534 
L 2738 3741 
L 5525 3741 
L 5525 4534 
z
M 5488 922 
L 3350 922 
L 3350 -9 
L 5488 -9 
L 5488 922 
z
" transform="scale(0.015625)"/>
      <path id="MicrosoftYaHei-5c42" d="M 394 -847 
Q 213 -603 50 -409 
Q 825 678 825 2709 
L 825 5022 
L 5963 5022 
L 5963 3053 
L 5488 3053 
L 5488 3284 
L 1300 3284 
L 1300 2609 
Q 1300 497 394 -847 
z
M 4294 559 
L 4631 853 
Q 5556 53 6100 -528 
L 5713 -872 
Q 5522 -656 5328 -453 
Q 3425 -463 2219 -553 
Q 2044 -566 1775 -634 
L 1563 -172 
Q 1938 -28 2144 147 
Q 2500 497 2906 1034 
L 1375 1034 
L 1375 1472 
L 6288 1472 
L 6288 1034 
L 3550 1034 
Q 3022 388 2569 -66 
Q 3741 -59 4922 -34 
Q 4613 272 4294 559 
z
M 1300 4584 
L 1300 3722 
L 5488 3722 
L 5488 4584 
L 1300 4584 
z
M 1819 2603 
L 5731 2603 
L 5731 2166 
L 1819 2166 
L 1819 2603 
z
" transform="scale(0.015625)"/>
     </defs>
     <use xlink:href="#MicrosoftYaHei-6838"/>
     <use xlink:href="#MicrosoftYaHei-5fc3" transform="translate(100 0)"/>
     <use xlink:href="#MicrosoftYaHei-6570" transform="translate(200 0)"/>
     <use xlink:href="#MicrosoftYaHei-636e" transform="translate(300 0)"/>
     <use xlink:href="#MicrosoftYaHei-5c42" transform="translate(400 0)"/>
    </g>
   </g>
   <g id="text_5">
    <!-- 距离矩阵 -->
    <g style="fill: #111827" transform="translate(80.6 221.597011) scale(0.095 -0.095)">
     <defs>
      <path id="MicrosoftYaHei-8ddd" d="M 2988 4953 
L 6225 4953 
L 6225 4503 
L 3463 4503 
L 3463 3328 
L 5913 3328 
L 5913 991 
L 5450 991 
L 5450 1228 
L 3463 1228 
L 3463 -128 
L 6300 -128 
L 6300 -578 
L 2988 -578 
L 2988 4953 
z
M 69 -34 
L 425 22 
L 425 2478 
L 831 2478 
L 831 91 
Q 1134 144 1438 203 
L 1438 3122 
L 938 3122 
L 938 2916 
L 525 2916 
L 525 4984 
L 2444 4984 
L 2444 3122 
L 1856 3122 
L 1856 2022 
L 2588 2022 
L 2588 1628 
L 1856 1628 
L 1856 284 
Q 2241 363 2631 447 
Q 2638 178 2656 -9 
Q 1219 -272 219 -516 
L 69 -34 
z
M 5450 2891 
L 3463 2891 
L 3463 1666 
L 5450 1666 
L 5450 2891 
z
M 2025 3484 
L 2025 4622 
L 938 4622 
L 938 3484 
L 2025 3484 
z
" transform="scale(0.015625)"/>
      <path id="MicrosoftYaHei-79bb" d="M 2381 459 
Q 3106 484 3878 519 
Q 3716 700 3550 878 
L 3863 1122 
Q 4350 634 4781 147 
L 4450 -141 
Q 4331 0 4213 141 
Q 3416 103 2450 41 
Q 2175 22 1863 -28 
L 1688 416 
Q 1950 578 2131 822 
Q 2278 1025 2425 1278 
L 1056 1278 
L 1056 -822 
L 588 -822 
L 588 1691 
L 2650 1691 
Q 2784 1950 2916 2253 
L 825 2253 
L 825 4066 
L 1281 4066 
L 1281 2653 
L 5113 2653 
L 5113 4072 
L 5569 4072 
L 5569 2028 
L 5113 2028 
L 5113 2253 
L 3472 2253 
Q 3322 1963 3169 1691 
L 5800 1691 
L 5800 -122 
Q 5800 -791 5175 -791 
Q 4875 -791 4519 -778 
Q 4494 -559 4431 -297 
Q 4800 -334 5063 -334 
Q 5331 -334 5331 -53 
L 5331 1278 
L 2928 1278 
Q 2659 838 2381 459 
z
M 200 4734 
L 2919 4734 
Q 2788 4969 2669 5153 
L 3150 5372 
Q 3309 5141 3541 4734 
L 6200 4734 
L 6200 4309 
L 200 4309 
L 200 4734 
z
M 1613 3884 
L 1781 4216 
Q 2500 3984 3294 3700 
Q 3934 3956 4500 4247 
L 4688 3928 
Q 4269 3709 3816 3513 
Q 4281 3341 4775 3153 
L 4606 2797 
Q 3938 3072 3325 3303 
Q 2569 3000 1731 2747 
Q 1619 2947 1506 3103 
Q 2169 3288 2772 3503 
Q 2159 3719 1613 3884 
z
" transform="scale(0.015625)"/>
      <path id="MicrosoftYaHei-77e9" d="M 2869 4928 
L 6244 4928 
L 6244 4491 
L 3344 4491 
L 3344 3409 
L 5869 3409 
L 5869 697 
L 5400 697 
L 5400 1059 
L 3344 1059 
L 3344 -159 
L 6306 -159 
L 6306 -597 
L 2869 -597 
L 2869 4928 
z
M 125 2666 
L 1250 2666 
Q 1281 3225 1281 3947 
L 878 3947 
Q 681 3403 425 2966 
Q 275 3191 106 3378 
Q 594 4234 788 5353 
L 1250 5266 
Q 1153 4797 1025 4384 
L 2575 4384 
L 2575 3947 
L 1744 3947 
Q 1744 3219 1722 2666 
L 2663 2666 
L 2663 2228 
L 1697 2228 
Q 1669 1766 1581 1359 
L 1881 1541 
Q 2369 803 2763 128 
L 2338 -128 
Q 1972 553 1553 1225 
Q 1256 -47 400 -766 
Q 256 -578 63 -384 
Q 1078 494 1219 2228 
L 125 2228 
L 125 2666 
z
M 5400 2978 
L 3344 2978 
L 3344 1491 
L 5400 1491 
L 5400 2978 
z
" transform="scale(0.015625)"/>
      <path id="MicrosoftYaHei-9635" d="M 2400 1072 
L 4250 1072 
L 4250 1997 
L 2531 1997 
L 2531 2447 
Q 2919 3178 3250 4028 
L 2406 4028 
L 2406 4478 
L 3419 4478 
Q 3569 4897 3706 5341 
L 4225 5234 
Q 4094 4863 3944 4478 
L 6194 4478 
L 6194 4028 
L 3769 4028 
Q 3463 3263 3094 2447 
L 4250 2447 
L 4250 3641 
L 4775 3641 
L 4775 2447 
L 6050 2447 
L 6050 1997 
L 4775 1997 
L 4775 1072 
L 6275 1072 
L 6275 622 
L 4775 622 
L 4775 -847 
L 4250 -847 
L 4250 622 
L 2400 622 
L 2400 1072 
z
M 2213 1522 
Q 2381 322 1619 166 
Q 1438 134 1006 159 
Q 963 397 894 684 
Q 1163 616 1444 634 
Q 1875 697 1731 1528 
Q 1644 2034 1169 2653 
Q 1450 3578 1681 4472 
L 869 4472 
L 869 -841 
L 400 -841 
L 400 4909 
L 2200 4909 
L 2200 4472 
Q 1775 3072 1663 2734 
Q 2138 2072 2213 1522 
z
" transform="scale(0.015625)"/>
     </defs>
     <use xlink:href="#MicrosoftYaHei-8ddd"/>
     <use xlink:href="#MicrosoftYaHei-79bb" transform="translate(100 0)"/>
     <use xlink:href="#MicrosoftYaHei-77e9" transform="translate(200 0)"/>
     <use xlink:href="#MicrosoftYaHei-9635" transform="translate(300 0)"/>
    </g>
   </g>
   <g id="text_6">
    <!-- 路径（Tour） -->
    <g style="fill: #111827" transform="translate(161.196297 221.597011) scale(0.095 -0.095)">
     <defs>
      <path id="MicrosoftYaHei-8def" d="M 481 2416 
L 894 2416 
L 894 106 
Q 1147 144 1413 184 
L 1413 3041 
L 913 3041 
L 913 2834 
L 463 2834 
L 463 4953 
L 2513 4953 
L 2513 3041 
L 1850 3041 
L 1850 1984 
L 2500 1984 
L 2500 1559 
L 1850 1559 
L 1850 250 
Q 2241 313 2650 384 
Q 2638 172 2638 -72 
Q 1419 -278 225 -484 
L 100 3 
Q 288 25 481 50 
L 481 2416 
z
M 2575 3428 
Q 3231 4234 3713 5359 
L 4175 5191 
Q 4041 4909 3906 4653 
L 5881 4653 
L 5881 4234 
Q 5472 3463 4797 2809 
Q 5413 2388 6313 2178 
Q 6188 1903 6106 1659 
Q 5125 1994 4441 2500 
Q 3759 1972 2788 1559 
Q 2725 1684 2538 2003 
Q 3384 2306 4072 2816 
Q 3694 3191 3391 3756 
Q 3138 3366 2888 3059 
Q 2738 3259 2575 3428 
z
M 3038 1584 
L 5756 1584 
L 5756 -847 
L 5288 -847 
L 5288 -547 
L 3506 -547 
L 3506 -847 
L 3038 -847 
L 3038 1584 
z
M 5288 1147 
L 3506 1147 
L 3506 -109 
L 5288 -109 
L 5288 1147 
z
M 2063 3466 
L 2063 4528 
L 913 4528 
L 913 3466 
L 2063 3466 
z
M 5344 4228 
L 3675 4228 
Q 3656 4197 3638 4166 
Q 3953 3531 4425 3103 
Q 4988 3606 5344 4228 
z
" transform="scale(0.015625)"/>
      <path id="MicrosoftYaHei-5f84" d="M 2388 4466 
L 2388 4891 
L 5738 4891 
L 5738 4459 
Q 5216 3866 4619 3391 
Q 5559 2888 6338 2428 
L 6038 1972 
Q 5256 2494 4216 3091 
Q 3253 2422 2106 2041 
Q 2000 2247 1850 2459 
Q 3894 3153 5025 4466 
L 2388 4466 
z
M 1931 -66 
L 3881 -66 
L 3881 1403 
L 2288 1403 
L 2288 1828 
L 5950 1828 
L 5950 1403 
L 4344 1403 
L 4344 -66 
L 6300 -66 
L 6300 -491 
L 1931 -491 
L 1931 -66 
z
M 38 1572 
Q 975 2353 1750 3809 
L 2175 3541 
Q 1844 2953 1475 2444 
L 1475 -816 
L 994 -816 
L 994 1831 
Q 638 1419 250 1066 
Q 156 1328 38 1572 
z
M 106 3616 
Q 1038 4359 1638 5391 
L 2063 5116 
Q 1356 3997 344 3134 
Q 238 3359 106 3616 
z
" transform="scale(0.015625)"/>
      <path id="MicrosoftYaHei-6f" d="M 316 1691 
Q 316 2547 794 3042 
Q 1272 3538 2091 3538 
Q 2869 3538 3311 3061 
Q 3753 2584 3753 1744 
Q 3753 925 3281 422 
Q 2809 -81 2016 -81 
Q 1241 -81 778 406 
Q 316 894 316 1691 
z
M 941 1709 
Q 941 1113 1242 769 
Q 1544 425 2053 425 
Q 2578 425 2853 761 
Q 3128 1097 3128 1725 
Q 3128 2356 2853 2693 
Q 2578 3031 2053 3031 
Q 1538 3031 1239 2678 
Q 941 2325 941 1709 
z
" transform="scale(0.015625)"/>
      <path id="MicrosoftYaHei-75" d="M 3400 0 
L 2784 0 
L 2784 544 
L 2772 544 
Q 2425 -81 1706 -81 
Q 478 -81 478 1388 
L 478 3456 
L 1084 3456 
L 1084 1478 
Q 1084 425 1891 425 
Q 2291 425 2537 720 
Q 2784 1016 2784 1466 
L 2784 3456 
L 3400 3456 
L 3400 0 
z
" transform="scale(0.015625)"/>
     </defs>
     <use xlink:href="#MicrosoftYaHei-8def"/>
     <use xlink:href="#MicrosoftYaHei-5f84" transform="translate(100 0)"/>
     <use xlink:href="#MicrosoftYaHei-ff08" transform="translate(200 0)"/>
     <use xlink:href="#MicrosoftYaHei-54" transform="translate(300 0)"/>
     <use xlink:href="#MicrosoftYaHei-6f" transform="translate(346.199219 0)"/>
     <use xlink:href="#MicrosoftYaHei-75" transform="translate(409.773438 0)"/>
     <use xlink:href="#MicrosoftYaHei-72" transform="translate(471.394531 0)"/>
     <use xlink:href="#MicrosoftYaHei-ff09" transform="translate(509.578125 0)"/>
    </g>
   </g>
   <g id="text_7">
    <!-- RNG -->
    <g style="fill: #111827" transform="translate(270.209469 221.597011) scale(0.095 -0.095)">
     <defs>
      <path id="MicrosoftYaHei-52" d="M 4159 0 
L 3422 0 
L 2619 1344 
Q 2378 1747 2178 1892 
Q 1978 2038 1700 2038 
L 1250 2038 
L 1250 0 
L 625 0 
L 625 4841 
L 2100 4841 
Q 2806 4841 3206 4500 
Q 3606 4159 3606 3547 
Q 3606 2541 2531 2241 
L 2531 2225 
Q 2731 2141 2876 1984 
Q 3022 1828 3253 1450 
L 4159 0 
z
M 1250 4294 
L 1250 2584 
L 1988 2584 
Q 2416 2584 2683 2834 
Q 2950 3084 2950 3491 
Q 2950 3869 2706 4081 
Q 2463 4294 1997 4294 
L 1250 4294 
z
" transform="scale(0.015625)"/>
      <path id="MicrosoftYaHei-4e" d="M 4578 0 
L 3838 0 
L 1403 3766 
Q 1300 3925 1238 4081 
L 1219 4081 
Q 1244 3919 1244 3403 
L 1244 0 
L 625 0 
L 625 4841 
L 1409 4841 
L 3778 1141 
Q 3947 878 3978 806 
L 3991 806 
Q 3959 1013 3959 1513 
L 3959 4841 
L 4578 4841 
L 4578 0 
z
" transform="scale(0.015625)"/>
      <path id="MicrosoftYaHei-47" d="M 4284 331 
Q 3559 -81 2647 -81 
Q 1597 -81 955 583 
Q 313 1247 313 2356 
Q 313 3478 1022 4200 
Q 1731 4922 2841 4922 
Q 3625 4922 4169 4672 
L 4169 3997 
Q 3588 4363 2784 4363 
Q 1994 4363 1481 3822 
Q 969 3281 969 2397 
Q 969 1488 1441 981 
Q 1913 475 2716 475 
Q 3269 475 3656 688 
L 3656 1997 
L 2606 1997 
L 2606 2550 
L 4284 2550 
L 4284 331 
z
" transform="scale(0.015625)"/>
     </defs>
     <use xlink:href="#MicrosoftYaHei-52"/>
     <use xlink:href="#MicrosoftYaHei-4e" transform="translate(65.283203 0)"/>
     <use xlink:href="#MicrosoftYaHei-47" transform="translate(146.582031 0)"/>
    </g>
   </g>
   <g id="text_8">
    <!-- 搜索核心 -->
    <g style="fill: #475569" transform="translate(172.152 273.018516) scale(0.09 -0.09)">
     <defs>
      <path id="MicrosoftYaHei-641c" d="M 2225 1209 
L 2225 1609 
L 3869 1609 
L 3869 2228 
L 2719 2228 
L 2719 2072 
L 2275 2072 
L 2275 4747 
Q 2881 4847 3450 5084 
L 3713 4666 
Q 3181 4516 2719 4416 
L 2719 3753 
L 3625 3753 
L 3625 3353 
L 2719 3353 
L 2719 2628 
L 3869 2628 
L 3869 5341 
L 4325 5341 
L 4325 2628 
L 5481 2628 
L 5481 3353 
L 4619 3353 
L 4619 3753 
L 5481 3753 
L 5481 4459 
L 4525 4459 
L 4525 4859 
L 5925 4859 
L 5925 2072 
L 5481 2072 
L 5481 2228 
L 4325 2228 
L 4325 1609 
L 5675 1609 
L 5675 1222 
Q 5234 550 4566 84 
Q 5297 -225 6313 -316 
Q 6163 -559 6044 -791 
Q 4891 -647 4084 -206 
Q 3194 -681 1975 -866 
Q 1881 -666 1719 -422 
Q 2831 -266 3631 84 
Q 3031 538 2681 1209 
L 2225 1209 
z
M 88 1966 
Q 525 2125 906 2272 
L 906 3728 
L 131 3728 
L 131 4166 
L 906 4166 
L 906 5316 
L 1363 5316 
L 1363 4166 
L 2050 4166 
L 2050 3728 
L 1363 3728 
L 1363 2450 
Q 1709 2594 2000 2722 
Q 2019 2409 2050 2222 
Q 1725 2094 1363 1941 
L 1363 -84 
Q 1363 -691 919 -753 
Q 663 -791 263 -778 
Q 238 -528 188 -259 
Q 494 -284 675 -284 
Q 906 -284 906 -9 
L 906 1747 
Q 544 1591 150 1416 
L 88 1966 
z
M 5094 1209 
L 3172 1209 
Q 3516 675 4097 325 
Q 4716 688 5094 1209 
z
" transform="scale(0.015625)"/>
      <path id="MicrosoftYaHei-7d22" d="M 4431 2197 
Q 5281 1559 5956 966 
L 5588 622 
Q 5391 816 5178 1009 
Q 4331 978 3531 941 
L 3531 3 
Q 3531 -766 2713 -766 
Q 2344 -766 1925 -753 
Q 1894 -528 1838 -253 
Q 2288 -303 2619 -303 
Q 3044 -303 3044 109 
L 3044 913 
Q 2413 881 1813 841 
Q 1450 816 1088 759 
L 900 1253 
Q 1325 1341 1750 1541 
Q 2350 1831 2884 2131 
Q 2381 2097 1919 2059 
Q 1625 2028 1400 1984 
L 1244 2409 
Q 1513 2509 1769 2672 
Q 2175 2934 2619 3297 
L 806 3297 
L 806 2578 
L 319 2578 
L 319 3722 
L 2944 3722 
L 2944 4303 
L 500 4303 
L 500 4728 
L 2944 4728 
L 2944 5341 
L 3456 5341 
L 3456 4728 
L 5925 4728 
L 5925 4303 
L 3456 4303 
L 3456 3722 
L 6081 3722 
L 6081 2578 
L 5594 2578 
L 5594 3297 
L 3231 3297 
Q 2584 2791 2000 2416 
Q 2731 2447 3459 2472 
Q 3891 2738 4269 3009 
L 4650 2716 
Q 3244 1866 1988 1253 
Q 3313 1309 4747 1388 
Q 4441 1650 4106 1916 
L 4431 2197 
z
M 4356 678 
Q 5425 203 6294 -266 
Q 6113 -503 6000 -697 
Q 5181 -191 4094 322 
L 4356 678 
z
M 1838 728 
L 2131 372 
Q 1294 -228 394 -684 
Q 275 -491 88 -278 
Q 1031 141 1838 728 
z
" transform="scale(0.015625)"/>
     </defs>
     <use xlink:href="#MicrosoftYaHei-641c"/>
     <use xlink:href="#MicrosoftYaHei-7d22" transform="translate(100 0)"/>
     <use xlink:href="#MicrosoftYaHei-6838" transform="translate(200 0)"/>
     <use xlink:href="#MicrosoftYaHei-5fc3" transform="translate(300 0)"/>
    </g>
   </g>
   <g id="text_9">
    <!-- SA -->
    <g style="fill: #111827" transform="translate(93.516289 294.223411) scale(0.095 -0.095)">
     <defs>
      <path id="MicrosoftYaHei-41" d="M 4428 0 
L 3738 0 
L 3244 1325 
L 1228 1325 
L 763 0 
L 72 0 
L 1916 4841 
L 2584 4841 
L 4428 0 
z
M 3050 1872 
L 2319 3884 
Q 2284 3981 2244 4222 
L 2228 4222 
Q 2194 4003 2150 3884 
L 1425 1872 
L 3050 1872 
z
" transform="scale(0.015625)"/>
     </defs>
     <use xlink:href="#MicrosoftYaHei-53"/>
     <use xlink:href="#MicrosoftYaHei-41" transform="translate(57.714844 0)"/>
    </g>
   </g>
   <g id="text_10">
    <!-- QLSA -->
    <g style="fill: #111827" transform="translate(177.759695 294.223411) scale(0.095 -0.095)">
     <defs>
      <path id="MicrosoftYaHei-51" d="M 313 2363 
Q 313 3534 947 4228 
Q 1581 4922 2666 4922 
Q 3675 4922 4290 4244 
Q 4906 3566 4906 2478 
Q 4906 1300 4275 609 
Q 4125 447 3953 322 
L 5313 -653 
L 4284 -653 
L 3366 28 
Q 3009 -81 2588 -81 
Q 1556 -81 934 597 
Q 313 1275 313 2363 
z
M 969 2413 
Q 969 1534 1417 1004 
Q 1866 475 2588 475 
Q 3363 475 3805 983 
Q 4247 1491 4247 2403 
Q 4247 3341 3814 3850 
Q 3381 4359 2628 4359 
Q 1888 4359 1428 3821 
Q 969 3284 969 2413 
z
" transform="scale(0.015625)"/>
     </defs>
     <use xlink:href="#MicrosoftYaHei-51"/>
     <use xlink:href="#MicrosoftYaHei-4c" transform="translate(81.494141 0)"/>
     <use xlink:href="#MicrosoftYaHei-53" transform="translate(132.8125 0)"/>
     <use xlink:href="#MicrosoftYaHei-41" transform="translate(190.527344 0)"/>
    </g>
   </g>
   <g id="text_11">
    <!-- 2-opt 增量 -->
    <g style="fill: #111827" transform="translate(257.134352 294.413411) scale(0.095 -0.095)">
     <defs>
      <path id="MicrosoftYaHei-32" d="M 2666 3572 
Q 2666 3963 2419 4186 
Q 2172 4409 1747 4409 
Q 1447 4409 1140 4256 
Q 834 4103 569 3819 
L 569 4413 
Q 806 4659 1107 4790 
Q 1409 4922 1816 4922 
Q 2472 4922 2872 4570 
Q 3272 4219 3272 3619 
Q 3272 3084 3026 2693 
Q 2781 2303 2188 1894 
Q 1581 1475 1376 1294 
Q 1172 1113 1090 947 
Q 1009 781 1009 544 
L 3416 544 
L 3416 0 
L 372 0 
L 372 241 
Q 372 659 486 951 
Q 600 1244 862 1520 
Q 1125 1797 1681 2184 
Q 2250 2584 2458 2886 
Q 2666 3188 2666 3572 
z
" transform="scale(0.015625)"/>
      <path id="MicrosoftYaHei-2d" d="M 2328 1681 
L 488 1681 
L 488 2153 
L 2328 2153 
L 2328 1681 
z
" transform="scale(0.015625)"/>
      <path id="MicrosoftYaHei-589e" d="M 2188 4459 
L 3259 4459 
Q 3041 4781 2775 5116 
L 3131 5366 
Q 3456 4991 3694 4666 
L 3403 4459 
L 4453 4459 
Q 4759 4888 5050 5372 
L 5500 5116 
Q 5234 4772 4978 4459 
L 6038 4459 
L 6038 2122 
L 5600 2122 
L 5600 2309 
L 2625 2309 
L 2625 2122 
L 2188 2122 
L 2188 4459 
z
M 2438 1797 
L 5788 1797 
L 5788 -847 
L 5338 -847 
L 5338 -547 
L 2888 -547 
L 2888 -847 
L 2438 -847 
L 2438 1797 
z
M 81 428 
Q 466 538 894 672 
L 894 3253 
L 144 3253 
L 144 3697 
L 894 3697 
L 894 5259 
L 1356 5259 
L 1356 3697 
L 2000 3697 
L 2000 3253 
L 1356 3253 
L 1356 819 
Q 1709 931 2094 1059 
Q 2106 759 2125 553 
Q 1306 316 250 -53 
L 81 428 
z
M 5600 4084 
L 4325 4084 
L 4325 2684 
L 5600 2684 
L 5600 4084 
z
M 2625 2684 
L 3894 2684 
L 3894 4084 
L 2625 4084 
L 2625 2684 
z
M 5338 1409 
L 2888 1409 
L 2888 809 
L 5338 809 
L 5338 1409 
z
M 2888 -159 
L 5338 -159 
L 5338 434 
L 2888 434 
L 2888 -159 
z
M 5350 3609 
Q 5006 3066 4856 2884 
L 4519 3084 
Q 4744 3391 4981 3828 
L 5350 3609 
z
M 2863 3597 
L 3181 3803 
Q 3463 3441 3669 3122 
L 3319 2897 
Q 3119 3228 2863 3597 
z
" transform="scale(0.015625)"/>
      <path id="MicrosoftYaHei-91cf" d="M 113 -278 
L 2981 -278 
L 2981 78 
L 475 78 
L 475 403 
L 2981 403 
L 2981 759 
L 1494 759 
L 1494 597 
L 1069 597 
L 1069 2516 
L 5350 2516 
L 5350 597 
L 4925 597 
L 4925 759 
L 3419 759 
L 3419 403 
L 5931 403 
L 5931 78 
L 3419 78 
L 3419 -278 
L 6288 -278 
L 6288 -616 
L 113 -616 
L 113 -278 
z
M 1119 5072 
L 5306 5072 
L 5306 3284 
L 4881 3284 
L 4881 3453 
L 1544 3453 
L 1544 3284 
L 1119 3284 
L 1119 5072 
z
M 163 3153 
L 6263 3153 
L 6263 2816 
L 163 2816 
L 163 3153 
z
M 1544 3778 
L 4881 3778 
L 4881 4116 
L 1544 4116 
L 1544 3778 
z
M 4881 4747 
L 1544 4747 
L 1544 4416 
L 4881 4416 
L 4881 4747 
z
M 3419 1084 
L 4925 1084 
L 4925 1491 
L 3419 1491 
L 3419 1084 
z
M 1494 1084 
L 2981 1084 
L 2981 1491 
L 1494 1491 
L 1494 1084 
z
M 4925 2191 
L 3419 2191 
L 3419 1791 
L 4925 1791 
L 4925 2191 
z
M 1494 1791 
L 2981 1791 
L 2981 2191 
L 1494 2191 
L 1494 1791 
z
" transform="scale(0.015625)"/>
     </defs>
     <use xlink:href="#MicrosoftYaHei-32"/>
     <use xlink:href="#MicrosoftYaHei-2d" transform="translate(58.642578 0)"/>
     <use xlink:href="#MicrosoftYaHei-6f" transform="translate(101.904297 0)"/>
     <use xlink:href="#MicrosoftYaHei-70" transform="translate(165.478516 0)"/>
     <use xlink:href="#MicrosoftYaHei-74" transform="translate(229.345703 0)"/>
     <use xlink:href="#MicrosoftYaHei-20" transform="translate(266.601562 0)"/>
     <use xlink:href="#MicrosoftYaHei-589e" transform="translate(296.191406 0)"/>
     <use xlink:href="#MicrosoftYaHei-91cf" transform="translate(396.191406 0)"/>
    </g>
   </g>
   <g id="text_12">
    <!-- 并行后端 -->
    <g style="fill: #475569" transform="translate(172.152 344.536116) scale(0.09 -0.09)">
     <defs>
      <path id="MicrosoftYaHei-5e76" d="M 125 2172 
L 1778 2172 
Q 1781 2272 1781 3684 
L 394 3684 
L 394 4172 
L 2169 4172 
Q 1772 4697 1438 5059 
L 1813 5341 
Q 2325 4828 2619 4447 
L 2222 4172 
L 3784 4172 
Q 4178 4694 4581 5347 
L 5075 5041 
Q 4684 4538 4366 4172 
L 6006 4172 
L 6006 3684 
L 4681 3684 
L 4681 2172 
L 6275 2172 
L 6275 1684 
L 4681 1684 
L 4681 -816 
L 4169 -816 
L 4169 1684 
L 2266 1684 
Q 2188 28 744 -872 
Q 513 -566 394 -434 
Q 1713 403 1747 1684 
L 125 1684 
L 125 2172 
z
M 2291 2172 
L 4169 2172 
L 4169 3684 
L 2294 3684 
Q 2294 2384 2291 2172 
z
" transform="scale(0.015625)"/>
      <path id="MicrosoftYaHei-884c" d="M 2363 2978 
L 6319 2978 
L 6319 2509 
L 5106 2509 
L 5106 66 
Q 5106 -709 4325 -709 
Q 3800 -709 3256 -703 
Q 3219 -453 3163 -141 
Q 3650 -191 4144 -191 
Q 4575 -191 4575 234 
L 4575 2509 
L 2363 2509 
L 2363 2978 
z
M 100 1578 
Q 1069 2372 1863 3809 
L 2300 3541 
Q 1978 2984 1619 2500 
L 1619 -809 
L 1100 -809 
L 1100 1856 
Q 725 1431 319 1072 
Q 219 1334 100 1578 
z
M 2725 4866 
L 5969 4866 
L 5969 4397 
L 2725 4397 
L 2725 4866 
z
M 131 3559 
Q 1125 4328 1731 5347 
L 2181 5072 
Q 1456 3959 381 3078 
Q 269 3316 131 3559 
z
" transform="scale(0.015625)"/>
      <path id="MicrosoftYaHei-540e" d="M 1888 1984 
L 5688 1984 
L 5688 -828 
L 5188 -828 
L 5188 -403 
L 2388 -403 
L 2388 -828 
L 1888 -828 
L 1888 1984 
z
M 1313 2991 
Q 1313 1272 1138 672 
Q 963 -16 394 -847 
Q 250 -634 50 -409 
Q 494 222 650 859 
Q 806 1472 806 2659 
L 806 4766 
Q 3544 4853 5631 5141 
L 5931 4622 
Q 3344 4359 1313 4284 
L 1313 3459 
L 6263 3459 
L 6263 2991 
L 1313 2991 
z
M 5188 1528 
L 2388 1528 
L 2388 41 
L 5188 41 
L 5188 1528 
z
" transform="scale(0.015625)"/>
      <path id="MicrosoftYaHei-7aef" d="M 2263 2953 
L 6306 2953 
L 6306 2547 
L 4431 2547 
L 4259 1866 
L 6013 1866 
L 6013 -209 
Q 6013 -747 5538 -747 
Q 5375 -747 5081 -741 
Q 5038 -484 4956 -278 
Q 5169 -297 5388 -297 
Q 5575 -297 5575 -103 
L 5575 1478 
L 4931 1478 
L 4931 -484 
L 4513 -484 
L 4513 1478 
L 3894 1478 
L 3894 -447 
L 3475 -447 
L 3475 1478 
L 2850 1478 
L 2850 -803 
L 2413 -803 
L 2413 1866 
L 3806 1866 
L 3950 2547 
L 2263 2547 
L 2263 2953 
z
M 5406 3359 
L 5406 3553 
L 2581 3553 
L 2581 4959 
L 3019 4959 
L 3019 3941 
L 3988 3941 
L 3988 5353 
L 4438 5353 
L 4438 3941 
L 5406 3941 
L 5406 4959 
L 5844 4959 
L 5844 3359 
L 5406 3359 
z
M 2088 3178 
Q 1969 2256 1644 584 
Q 1966 653 2238 722 
Q 2231 478 2244 278 
Q 1538 103 181 -172 
L 88 297 
Q 716 400 1231 500 
Q 1538 2378 1644 3259 
L 2088 3178 
z
M 238 3091 
L 663 3184 
Q 869 2291 1075 991 
L 644 878 
Q 475 2128 238 3091 
z
M 156 4072 
L 2300 4072 
L 2300 3666 
L 156 3666 
L 156 4072 
z
M 669 5091 
L 1050 5316 
Q 1419 4859 1681 4378 
L 1269 4128 
Q 1044 4566 669 5091 
z
" transform="scale(0.015625)"/>
     </defs>
     <use xlink:href="#MicrosoftYaHei-5e76"/>
     <use xlink:href="#MicrosoftYaHei-884c" transform="translate(100 0)"/>
     <use xlink:href="#MicrosoftYaHei-540e" transform="translate(200 0)"/>
     <use xlink:href="#MicrosoftYaHei-7aef" transform="translate(300 0)"/>
    </g>
   </g>
   <g id="text_13">
    <!-- Serial 串行 -->
    <g style="fill: #111827" transform="translate(61.506117 369.621811) scale(0.095 -0.095)">
     <defs>
      <path id="MicrosoftYaHei-69" d="M 472 4675 
Q 472 4838 583 4948 
Q 694 5059 856 5059 
Q 1022 5059 1136 4950 
Q 1250 4841 1250 4675 
Q 1250 4513 1136 4405 
Q 1022 4297 856 4297 
Q 691 4297 581 4405 
Q 472 4513 472 4675 
z
M 544 0 
L 544 3456 
L 1156 3456 
L 1156 0 
L 544 0 
z
" transform="scale(0.015625)"/>
      <path id="MicrosoftYaHei-6c" d="M 544 0 
L 544 5116 
L 1156 5116 
L 1156 0 
L 544 0 
z
" transform="scale(0.015625)"/>
      <path id="MicrosoftYaHei-4e32" d="M 531 2216 
L 2944 2216 
L 2944 2872 
L 1300 2872 
L 1300 2666 
L 806 2666 
L 806 4578 
L 2944 4578 
L 2944 5309 
L 3450 5309 
L 3450 4578 
L 5594 4578 
L 5594 2666 
L 5100 2666 
L 5100 2872 
L 3450 2872 
L 3450 2216 
L 5869 2216 
L 5869 134 
L 5375 134 
L 5375 366 
L 3450 366 
L 3450 -822 
L 2944 -822 
L 2944 366 
L 1025 366 
L 1025 134 
L 531 134 
L 531 2216 
z
M 5375 1778 
L 3450 1778 
L 3450 803 
L 5375 803 
L 5375 1778 
z
M 1025 803 
L 2944 803 
L 2944 1778 
L 1025 1778 
L 1025 803 
z
M 5100 4141 
L 3450 4141 
L 3450 3309 
L 5100 3309 
L 5100 4141 
z
M 1300 3309 
L 2944 3309 
L 2944 4141 
L 1300 4141 
L 1300 3309 
z
" transform="scale(0.015625)"/>
     </defs>
     <use xlink:href="#MicrosoftYaHei-53"/>
     <use xlink:href="#MicrosoftYaHei-65" transform="translate(57.714844 0)"/>
     <use xlink:href="#MicrosoftYaHei-72" transform="translate(114.453125 0)"/>
     <use xlink:href="#MicrosoftYaHei-69" transform="translate(152.636719 0)"/>
     <use xlink:href="#MicrosoftYaHei-61" transform="translate(179.248047 0)"/>
     <use xlink:href="#MicrosoftYaHei-6c" transform="translate(234.521484 0)"/>
     <use xlink:href="#MicrosoftYaHei-20" transform="translate(261.132812 0)"/>
     <use xlink:href="#MicrosoftYaHei-4e32" transform="translate(290.722656 0)"/>
     <use xlink:href="#MicrosoftYaHei-884c" transform="translate(390.722656 0)"/>
    </g>
   </g>
   <g id="text_14">
    <!-- OpenMP 多链 -->
    <g style="fill: #111827" transform="translate(159.171609 369.797709) scale(0.095 -0.095)">
     <defs>
      <path id="MicrosoftYaHei-4f" d="M 313 2363 
Q 313 3534 947 4228 
Q 1581 4922 2666 4922 
Q 3675 4922 4290 4244 
Q 4906 3566 4906 2478 
Q 4906 1300 4275 609 
Q 3644 -81 2588 -81 
Q 1556 -81 934 597 
Q 313 1275 313 2363 
z
M 969 2413 
Q 969 1534 1417 1004 
Q 1866 475 2588 475 
Q 3363 475 3805 983 
Q 4247 1491 4247 2403 
Q 4247 3341 3814 3850 
Q 3381 4359 2628 4359 
Q 1888 4359 1428 3821 
Q 969 3284 969 2413 
z
" transform="scale(0.015625)"/>
      <path id="MicrosoftYaHei-4d" d="M 5003 0 
L 5003 3206 
Q 5003 3603 5050 4159 
L 5034 4159 
Q 4953 3809 4891 3672 
L 3294 0 
L 2947 0 
L 1353 3644 
Q 1297 3769 1209 4159 
L 1191 4159 
Q 1222 3822 1222 3178 
L 1222 0 
L 625 0 
L 625 4841 
L 1472 4841 
L 2900 1522 
Q 3063 1141 3116 928 
L 3138 928 
Q 3300 1375 3366 1534 
L 4819 4841 
L 5625 4841 
L 5625 0 
L 5003 0 
z
" transform="scale(0.015625)"/>
      <path id="MicrosoftYaHei-591a" d="M 3719 2803 
L 4338 2803 
Q 4050 2522 3744 2272 
L 6019 2272 
L 6019 1816 
Q 4006 -366 650 -891 
Q 538 -666 369 -422 
Q 1894 -203 3100 322 
Q 2919 559 2581 903 
L 2956 1178 
Q 3275 847 3538 522 
Q 4588 1059 5344 1834 
L 3200 1834 
Q 2100 1009 881 484 
Q 769 666 581 909 
Q 2319 1609 3719 2803 
z
M 2775 5316 
L 3406 5316 
Q 3088 4972 2756 4672 
L 5700 4672 
L 5700 4247 
Q 3550 2516 481 1666 
Q 350 1916 194 2103 
Q 1481 2441 2506 2872 
Q 2281 3122 1913 3484 
L 2263 3759 
Q 2631 3403 2944 3066 
Q 4088 3584 4950 4234 
L 2256 4234 
Q 1606 3678 713 3172 
Q 575 3359 369 3566 
Q 1800 4328 2775 5316 
z
" transform="scale(0.015625)"/>
      <path id="MicrosoftYaHei-94fe" d="M 4050 2609 
L 4756 2609 
L 4756 3734 
L 5206 3734 
L 5206 2609 
L 6069 2609 
L 6069 2172 
L 5206 2172 
L 5206 1366 
L 6238 1366 
L 6238 928 
L 5206 928 
L 5206 -53 
L 4756 -53 
L 4756 928 
L 3375 928 
L 3375 1366 
L 4756 1366 
L 4756 2172 
L 3569 2172 
L 3569 2609 
Q 3859 3309 4100 4078 
L 3475 4078 
L 3475 4516 
L 4228 4516 
Q 4347 4925 4450 5353 
L 4931 5259 
Q 4831 4888 4716 4516 
L 6169 4516 
L 6169 4078 
L 4578 4078 
Q 4341 3350 4050 2609 
z
M 4275 -178 
Q 5119 -216 6306 -159 
Q 6206 -409 6125 -641 
Q 5025 -666 4231 -622 
Q 3356 -591 2894 72 
Q 2719 -166 2288 -828 
L 1969 -384 
Q 2375 106 2656 466 
L 2656 2622 
L 2150 2622 
L 2150 3072 
L 3106 3072 
L 3106 466 
Q 3494 -166 4275 -178 
z
M 2081 922 
Q 2138 641 2188 459 
Q 1600 -97 1256 -447 
Q 1206 -509 1081 -678 
L 738 -291 
Q 913 -97 913 278 
L 913 1566 
L 113 1566 
L 113 2003 
L 913 2003 
L 913 2766 
L 656 2766 
L 656 3203 
L 1981 3203 
L 1981 2766 
L 1369 2766 
L 1369 2003 
L 2150 2003 
L 2150 1566 
L 1369 1566 
L 1369 253 
Q 1769 609 2081 922 
z
M 100 3153 
Q 600 3978 894 5303 
L 1363 5203 
Q 1247 4750 1106 4334 
L 2175 4334 
L 2175 3897 
L 947 3897 
Q 684 3225 344 2666 
Q 238 2897 100 3153 
z
M 2750 5253 
Q 3056 4491 3250 3872 
Q 3000 3791 2775 3709 
Q 2588 4378 2319 5116 
L 2750 5253 
z
" transform="scale(0.015625)"/>
     </defs>
     <use xlink:href="#MicrosoftYaHei-4f"/>
     <use xlink:href="#MicrosoftYaHei-70" transform="translate(81.494141 0)"/>
     <use xlink:href="#MicrosoftYaHei-65" transform="translate(145.361328 0)"/>
     <use xlink:href="#MicrosoftYaHei-6e" transform="translate(202.099609 0)"/>
     <use xlink:href="#MicrosoftYaHei-4d" transform="translate(263.720703 0)"/>
     <use xlink:href="#MicrosoftYaHei-50" transform="translate(361.425781 0)"/>
     <use xlink:href="#MicrosoftYaHei-20" transform="translate(422.607422 0)"/>
     <use xlink:href="#MicrosoftYaHei-591a" transform="translate(452.197266 0)"/>
     <use xlink:href="#MicrosoftYaHei-94fe" transform="translate(552.197266 0)"/>
    </g>
   </g>
   <g id="text_15">
    <!-- CUDA 后端 -->
    <g style="fill: #111827" transform="translate(270.981711 369.621811) scale(0.095 -0.095)">
     <defs>
      <path id="MicrosoftYaHei-43" d="M 3938 200 
Q 3403 -81 2597 -81 
Q 1556 -81 934 580 
Q 313 1241 313 2328 
Q 313 3497 1013 4209 
Q 1713 4922 2791 4922 
Q 3484 4922 3938 4725 
L 3938 4072 
Q 3419 4359 2797 4359 
Q 1988 4359 1478 3820 
Q 969 3281 969 2366 
Q 969 1497 1444 986 
Q 1919 475 2688 475 
Q 3406 475 3938 800 
L 3938 200 
z
" transform="scale(0.015625)"/>
      <path id="MicrosoftYaHei-55" d="M 4213 1972 
Q 4213 -81 2350 -81 
Q 566 -81 566 1900 
L 566 4841 
L 1191 4841 
L 1191 1928 
Q 1191 475 2409 475 
Q 3588 475 3588 1881 
L 3588 4841 
L 4213 4841 
L 4213 1972 
z
" transform="scale(0.015625)"/>
      <path id="MicrosoftYaHei-44" d="M 625 0 
L 625 4841 
L 2006 4841 
Q 3106 4841 3836 4200 
Q 4566 3559 4566 2481 
Q 4566 1356 3836 678 
Q 3106 0 1956 0 
L 625 0 
z
M 1250 4284 
L 1250 553 
L 1953 553 
Q 2875 553 3392 1056 
Q 3909 1559 3909 2466 
Q 3909 3372 3378 3828 
Q 2847 4284 1981 4284 
L 1250 4284 
z
" transform="scale(0.015625)"/>
     </defs>
     <use xlink:href="#MicrosoftYaHei-43"/>
     <use xlink:href="#MicrosoftYaHei-55" transform="translate(66.894531 0)"/>
     <use xlink:href="#MicrosoftYaHei-44" transform="translate(141.552734 0)"/>
     <use xlink:href="#MicrosoftYaHei-41" transform="translate(215.974609 0)"/>
     <use xlink:href="#MicrosoftYaHei-20" transform="translate(286.335938 0)"/>
     <use xlink:href="#MicrosoftYaHei-540e" transform="translate(315.925781 0)"/>
     <use xlink:href="#MicrosoftYaHei-7aef" transform="translate(415.925781 0)"/>
    </g>
   </g>
   <g id="text_16">
    <!-- CSV 结果 -->
    <g style="fill: #111827" transform="translate(168.006023 431.990002) scale(0.105 -0.105)">
     <defs>
      <path id="MicrosoftYaHei-56" d="M 4272 4841 
L 2494 0 
L 1800 0 
L 56 4841 
L 750 4841 
L 2053 1056 
Q 2119 869 2150 622 
L 2166 622 
Q 2191 838 2275 1063 
L 3603 4841 
L 4272 4841 
z
" transform="scale(0.015625)"/>
      <path id="MicrosoftYaHei-7ed3" d="M 2625 1709 
L 5925 1709 
L 5925 -828 
L 5438 -828 
L 5438 -441 
L 3113 -441 
L 3113 -828 
L 2625 -828 
L 2625 1709 
z
M 2500 2897 
L 4025 2897 
L 4025 3872 
L 2294 3872 
L 2294 4322 
L 4025 4322 
L 4025 5322 
L 4525 5322 
L 4525 4322 
L 6275 4322 
L 6275 3872 
L 4525 3872 
L 4525 2897 
L 6056 2897 
L 6056 2447 
L 2500 2447 
L 2500 2897 
z
M 894 1566 
Q 1725 1684 2269 1778 
Q 2231 1534 2213 1303 
Q 1519 1203 319 1009 
L 219 1472 
Q 619 1888 1172 2791 
Q 647 2756 219 2722 
L 100 3147 
Q 675 3916 1294 5366 
L 1769 5178 
Q 1094 3853 663 3184 
Q 1025 3194 1419 3206 
Q 1631 3569 1863 3997 
L 2325 3766 
Q 1613 2578 894 1566 
z
M 5438 1272 
L 3113 1272 
L 3113 -3 
L 5438 -3 
L 5438 1272 
z
M 75 91 
Q 1231 316 2331 584 
Q 2313 334 2313 109 
Q 1300 -103 213 -391 
L 75 91 
z
" transform="scale(0.015625)"/>
      <path id="MicrosoftYaHei-679c" d="M 6338 -53 
Q 6100 -309 5944 -522 
Q 4425 -41 3438 1181 
L 3438 -841 
L 2963 -841 
L 2963 1188 
Q 2084 172 450 -603 
Q 300 -416 75 -203 
Q 1550 363 2472 1259 
L 213 1259 
L 213 1709 
L 2963 1709 
L 2963 2384 
L 1306 2384 
L 1306 2141 
L 831 2141 
L 831 5016 
L 5569 5016 
L 5569 2141 
L 5094 2141 
L 5094 2384 
L 3438 2384 
L 3438 1709 
L 6200 1709 
L 6200 1259 
L 3856 1259 
Q 4769 294 6338 -53 
z
M 3438 2809 
L 5094 2809 
L 5094 3497 
L 3438 3497 
L 3438 2809 
z
M 5094 4591 
L 3438 4591 
L 3438 3903 
L 5094 3903 
L 5094 4591 
z
M 1306 2809 
L 2963 2809 
L 2963 3497 
L 1306 3497 
L 1306 2809 
z
M 1306 3903 
L 2963 3903 
L 2963 4591 
L 1306 4591 
L 1306 3903 
z
" transform="scale(0.015625)"/>
     </defs>
     <use xlink:href="#MicrosoftYaHei-43"/>
     <use xlink:href="#MicrosoftYaHei-53" transform="translate(66.894531 0)"/>
     <use xlink:href="#MicrosoftYaHei-56" transform="translate(124.609375 0)"/>
     <use xlink:href="#MicrosoftYaHei-20" transform="translate(192.236328 0)"/>
     <use xlink:href="#MicrosoftYaHei-7ed3" transform="translate(221.826172 0)"/>
     <use xlink:href="#MicrosoftYaHei-679c" transform="translate(321.826172 0)"/>
    </g>
   </g>
   <g id="text_17">
    <!-- 分析脚本 -->
    <g style="fill: #111827" transform="translate(169.152 484.658002) scale(0.105 -0.105)">
     <defs>
      <path id="MicrosoftYaHei-5206" d="M 900 2559 
L 5056 2559 
Q 5025 1497 4963 484 
Q 4888 -684 3856 -678 
Q 3350 -684 2788 -647 
Q 2750 -384 2700 -116 
Q 3181 -184 3775 -191 
Q 4400 -203 4463 541 
Q 4513 1216 4538 2097 
L 2616 2097 
Q 2541 1053 2181 416 
Q 1706 -422 588 -878 
Q 425 -666 231 -459 
Q 1269 -72 1725 666 
Q 2053 1225 2103 2097 
L 900 2097 
L 900 2559 
z
M 3488 5159 
L 3938 5353 
Q 4625 3678 6350 2847 
Q 6069 2553 5944 2372 
Q 4225 3366 3488 5159 
z
M 50 2766 
Q 1338 3678 2250 5253 
L 2694 5009 
Q 1744 3347 413 2341 
Q 281 2534 50 2766 
z
" transform="scale(0.015625)"/>
      <path id="MicrosoftYaHei-811a" d="M 481 4966 
L 2000 4966 
L 2000 -153 
Q 2000 -734 1450 -734 
Q 1175 -734 888 -716 
Q 875 -534 819 -284 
Q 1125 -328 1338 -328 
Q 1575 -328 1575 -78 
L 1575 1391 
L 903 1391 
Q 875 3 419 -822 
Q 281 -641 88 -472 
Q 481 241 481 1566 
L 481 4966 
z
M 4413 4834 
L 5994 4834 
L 5994 891 
Q 5994 397 5694 322 
Q 5544 259 5056 259 
Q 5031 528 4950 759 
Q 5556 641 5556 897 
L 5556 4416 
L 4850 4416 
L 4850 -828 
L 4413 -828 
L 4413 4834 
z
M 2675 566 
Q 3131 609 3622 666 
Q 3484 1091 3313 1572 
L 3694 1697 
Q 4106 672 4306 -72 
L 3881 -222 
Q 3816 25 3734 300 
Q 3022 209 2250 109 
L 2138 497 
Q 2500 934 2891 2353 
L 2181 2353 
L 2181 2759 
L 2981 2759 
L 2981 3872 
L 2281 3872 
L 2281 4278 
L 2981 4278 
L 2981 5316 
L 3431 5316 
L 3431 4278 
L 4113 4278 
L 4113 3872 
L 3431 3872 
L 3431 2759 
L 4219 2759 
L 4219 2353 
L 3369 2353 
Q 2978 1194 2675 566 
z
M 906 1778 
L 1575 1778 
L 1575 2978 
L 906 2978 
L 906 1778 
z
M 1575 4559 
L 906 4559 
L 906 3366 
L 1575 3366 
L 1575 4559 
z
" transform="scale(0.015625)"/>
      <path id="MicrosoftYaHei-672c" d="M 6281 803 
Q 6119 641 5856 366 
Q 4344 1531 3444 3353 
L 3444 878 
L 4875 878 
L 4875 441 
L 3444 441 
L 3444 -841 
L 2956 -841 
L 2956 441 
L 1475 441 
L 1475 878 
L 2956 878 
L 2956 3353 
Q 2159 1766 513 291 
Q 269 522 100 666 
Q 1878 2125 2759 3753 
L 238 3753 
L 238 4216 
L 2956 4216 
L 2956 5341 
L 3444 5341 
L 3444 4216 
L 6163 4216 
L 6163 3753 
L 3622 3753 
Q 4616 1884 6281 803 
z
" transform="scale(0.015625)"/>
     </defs>
     <use xlink:href="#MicrosoftYaHei-5206"/>
     <use xlink:href="#MicrosoftYaHei-6790" transform="translate(100 0)"/>
     <use xlink:href="#MicrosoftYaHei-811a" transform="translate(200 0)"/>
     <use xlink:href="#MicrosoftYaHei-672c" transform="translate(300 0)"/>
    </g>
   </g>
   <g id="text_18">
    <!-- 图表 + 报告 -->
    <g style="fill: #111827" transform="translate(162.150633 537.326002) scale(0.105 -0.105)">
     <defs>
      <path id="MicrosoftYaHei-56fe" d="M 431 5072 
L 5944 5072 
L 5944 -809 
L 5475 -809 
L 5475 -509 
L 900 -509 
L 900 -809 
L 431 -809 
L 431 5072 
z
M 5475 4622 
L 900 4622 
L 900 -59 
L 5475 -59 
L 5475 4622 
z
M 1113 3091 
Q 1969 3709 2519 4547 
L 2931 4353 
Q 2816 4181 2681 4016 
L 4894 4016 
L 4894 3647 
Q 4434 3091 3722 2644 
Q 4381 2422 5338 2297 
Q 5194 2016 5131 1828 
Q 4022 2081 3256 2400 
Q 2491 2056 1225 1728 
Q 1138 1934 1013 2128 
Q 2109 2353 2825 2644 
Q 2384 2947 2066 3341 
Q 1769 3056 1419 2784 
Q 1294 2916 1113 3091 
z
M 1563 672 
L 1694 1103 
Q 3256 897 4700 622 
L 4531 147 
Q 3150 453 1563 672 
z
M 4275 3628 
L 2347 3628 
Q 2338 3616 2328 3606 
Q 2691 3141 3244 2841 
Q 3891 3188 4275 3628 
z
M 2219 1503 
L 2344 1922 
Q 3263 1784 4275 1609 
L 4144 1172 
Q 3119 1378 2219 1503 
z
" transform="scale(0.015625)"/>
      <path id="MicrosoftYaHei-8868" d="M 5519 1891 
L 5863 1459 
L 4466 759 
Q 5200 159 6306 -34 
Q 6094 -309 5956 -534 
Q 3941 -53 3066 1944 
Q 2747 1538 2338 1172 
L 2338 -166 
Q 3163 103 3869 397 
Q 3863 122 3875 -147 
Q 3125 -403 2325 -709 
Q 2156 -778 1994 -872 
L 1700 -416 
Q 1875 -291 1875 -66 
L 1875 794 
Q 1228 309 406 -84 
Q 269 134 88 347 
Q 1703 1009 2625 2122 
L 156 2122 
L 156 2553 
L 2956 2553 
L 2956 3191 
L 600 3191 
L 600 3622 
L 2956 3622 
L 2956 4234 
L 350 4234 
L 350 4666 
L 2956 4666 
L 2956 5366 
L 3450 5366 
L 3450 4666 
L 6069 4666 
L 6069 4234 
L 3450 4234 
L 3450 3622 
L 5800 3622 
L 5800 3191 
L 3450 3191 
L 3450 2553 
L 6244 2553 
L 6244 2122 
L 3466 2122 
Q 3728 1513 4141 1066 
Q 4769 1378 5519 1891 
z
" transform="scale(0.015625)"/>
      <path id="MicrosoftYaHei-2b" d="M 3972 1772 
L 2613 1772 
L 2613 419 
L 2141 419 
L 2141 1772 
L 788 1772 
L 788 2250 
L 2141 2250 
L 2141 3603 
L 2613 3603 
L 2613 2250 
L 3972 2250 
L 3972 1772 
z
" transform="scale(0.015625)"/>
      <path id="MicrosoftYaHei-62a5" d="M 2469 4984 
L 5925 4984 
Q 5894 4347 5869 4022 
Q 5825 3247 4956 3247 
Q 4594 3247 3900 3259 
Q 3856 3497 3800 3759 
Q 4488 3697 4900 3697 
Q 5369 3697 5400 4078 
Q 5419 4278 5425 4547 
L 2956 4547 
L 2956 2759 
L 5963 2759 
L 5963 2328 
Q 5659 1209 4947 441 
Q 5519 -25 6325 -303 
Q 6106 -578 5963 -766 
Q 5163 -381 4591 109 
Q 4006 -375 3244 -816 
Q 3131 -628 2969 -391 
Q 3706 9 4241 447 
Q 3597 1169 3334 2322 
L 2956 2322 
L 2956 -859 
L 2469 -859 
L 2469 4984 
z
M 94 1997 
Q 566 2128 1006 2256 
L 1006 3609 
L 175 3609 
L 175 4041 
L 1006 4041 
L 1006 5259 
L 1488 5259 
L 1488 4041 
L 2231 4041 
L 2231 3609 
L 1488 3609 
L 1488 2403 
Q 1866 2522 2219 2641 
Q 2219 2341 2231 2153 
Q 1869 2038 1488 1913 
L 1488 -66 
Q 1488 -741 881 -753 
Q 631 -759 263 -753 
Q 225 -491 181 -222 
Q 550 -259 738 -259 
Q 1006 -259 1006 47 
L 1006 1756 
Q 591 1622 156 1478 
L 94 1997 
z
M 5456 2322 
L 3775 2322 
Q 3988 1409 4591 766 
Q 5213 1419 5456 2322 
z
" transform="scale(0.015625)"/>
      <path id="MicrosoftYaHei-544a" d="M 1013 1728 
L 5456 1728 
L 5456 -778 
L 4956 -778 
L 4956 -453 
L 1513 -453 
L 1513 -778 
L 1013 -778 
L 1013 1728 
z
M 175 2859 
L 3138 2859 
L 3138 3891 
L 1450 3891 
Q 1191 3394 894 2978 
Q 688 3122 431 3272 
Q 1119 4172 1450 5222 
L 1969 5072 
Q 1828 4697 1675 4353 
L 3138 4353 
L 3138 5334 
L 3650 5334 
L 3650 4353 
L 5813 4353 
L 5813 3891 
L 3650 3891 
L 3650 2859 
L 6281 2859 
L 6281 2397 
L 175 2397 
L 175 2859 
z
M 4956 1278 
L 1513 1278 
L 1513 -9 
L 4956 -9 
L 4956 1278 
z
" transform="scale(0.015625)"/>
     </defs>
     <use xlink:href="#MicrosoftYaHei-56fe"/>
     <use xlink:href="#MicrosoftYaHei-8868" transform="translate(100 0)"/>
     <use xlink:href="#MicrosoftYaHei-20" transform="translate(200 0)"/>
     <use xlink:href="#MicrosoftYaHei-2b" transform="translate(229.589844 0)"/>
     <use xlink:href="#MicrosoftYaHei-20" transform="translate(303.759766 0)"/>
     <use xlink:href="#MicrosoftYaHei-62a5" transform="translate(333.349609 0)"/>
     <use xlink:href="#MicrosoftYaHei-544a" transform="translate(433.349609 0)"/>
    </g>
   </g>
  </g>
 </g>
 <defs>
  <clipPath id="pfeebbb8573">
   <rect x="7.2" y="7.2" width="365.904" height="565.488"/>
  </clipPath>
 </defs>
</svg>
